<svg xmlns="http://www.w3.org/2000/svg" viewBox="0 0 5997.7 4701"><defs><style>.cls-1{fill:#e6e6e6;}.cls-2{fill:#232323;}.cls-3{fill:#050505;}.cls-4{fill:#c4003a;}.cls-5,.cls-7,.cls-8{fill:#06080d;}.cls-13,.cls-5{opacity:0.33;}.cls-6{opacity:0.23;}.cls-8{opacity:0.43;}.cls-9{fill:#5e5e5e;}.cls-10{fill:#aaa;}.cls-11{fill:#efefef;}.cls-12{fill:#878787;}.cls-14{fill:#a50028;}.cls-15{fill:#6b0024;}</style></defs><g id="Fons"><g id="Rodones_Fons" data-name="Rodones Fons"><circle id="Color_Cercle" data-name="Color Cercle" class="cls-1" cx="2998.85" cy="2350.5" r="2328"/><path id="Cercle" class="cls-2" d="M3000,5328.13c-314.23,0-619.06-61.54-906-182.92-277.18-117.24-526.11-285.07-739.87-498.84s-381.6-462.69-498.84-739.87c-121.38-287-182.92-591.81-182.92-906s61.54-619.07,182.92-906c117.24-277.18,285.07-526.11,498.84-739.88S1816.78,972.94,2094,855.71c287-121.38,591.81-182.93,906-182.93s619.07,61.55,906,182.93c277.18,117.23,526.11,285.07,739.87,498.83s381.6,462.7,498.84,739.88c121.38,287,182.92,591.81,182.92,906s-61.54,619.06-182.92,906c-117.24,277.18-285.07,526.11-498.84,739.87S4183.22,5028,3906,5145.21C3619.07,5266.59,3314.23,5328.13,3000,5328.13Zm0-4630.45c-310.88,0-612.45,60.88-896.34,181-274.21,116-520.48,282-732,493.51s-377.53,457.75-493.51,732c-120.08,283.89-181,585.46-181,896.34s60.88,612.45,181,896.34c116,274.21,282,520.48,493.51,732s457.76,377.53,732,493.51c283.89,120.07,585.46,181,896.34,181s612.45-60.89,896.34-181c274.21-116,520.48-282,732-493.51s377.53-457.76,493.51-732c120.08-283.89,181-585.46,181-896.34s-60.88-612.45-181-896.34c-116-274.22-282-520.49-493.51-732s-457.76-377.53-732-493.51C3612.45,758.56,3310.88,697.68,3000,697.68Zm0,3991.52c-228,0-449.13-44.66-657.34-132.72-201.09-85-381.69-206.82-536.78-361.9S1529,3858.89,1444,3657.8c-88.06-208.21-132.71-429.37-132.71-657.34s44.65-449.14,132.71-657.34c85.06-201.1,206.82-381.69,361.91-536.78s335.69-276.85,536.78-361.91c208.21-88.06,429.37-132.71,657.34-132.71s449.13,44.65,657.34,132.71c201.09,85.06,381.69,206.82,536.78,361.91S4471,2142,4556,2343.12c88.07,208.2,132.72,429.36,132.72,657.34S4644.09,3449.59,4556,3657.8c-85.05,201.09-206.81,381.69-361.9,536.78s-335.69,276.85-536.78,361.9C3449.13,4644.54,3228,4689.2,3000,4689.2Z" transform="translate(-1.15 -649.5)"/></g><g id="Linies_exteriors_" data-name="Linies (exteriors)"><path id="Dreta" class="cls-2" d="M4927.87,2062.58l-6.86,3q24.94,51.15,47.11,103.45A2125,2125,0,0,1,5092.58,2570a2156.64,2156.64,0,0,1,0,861,2124.52,2124.52,0,0,1-321.39,763.76A2146.25,2146.25,0,0,1,4322.34,4678l5.29,5.36c496.9-392.55,815.82-1000.45,815.82-1682.86C5143.45,2664.11,5065.94,2345.87,4927.87,2062.58Z" transform="translate(-1.15 -649.5)"/><path id="Esquerra" class="cls-2" d="M1745.11,4729.1a2141.56,2141.56,0,0,1-713.23-897.23,2124.94,2124.94,0,0,1-124.46-400.93,2156.64,2156.64,0,0,1,0-861A2125,2125,0,0,1,1031.88,2169q19.89-47,42.1-93.17l-6.69-3.35C932.23,2353.31,856.56,2668,856.56,3000.46c0,713.29,348.42,1345.19,884.35,1734.83Z" transform="translate(-1.15 -649.5)"/></g><g id="Linies_interiors_" data-name="Linies (interiors)"><path id="Dreta-2" data-name="Dreta" class="cls-2" d="M4100.21,4453.22c438.71-332.76,722.08-859.66,722.08-1452.76,0-290.45-68-565-188.83-808.7l-6.86,3q24.33,49,45.6,99.28c94.63,223.74,142.62,461.41,142.62,706.41s-48,482.67-142.62,706.4a1821.11,1821.11,0,0,1-577.3,741Z" transform="translate(-1.15 -649.5)"/><path id="Esquerra-2" data-name="Esquerra" class="cls-2" d="M1925.56,4463.14a1819.38,1819.38,0,0,1-597.76-756.28c-94.63-223.73-142.62-461.4-142.62-706.4s48-482.67,142.62-706.41q15.89-37.58,33.55-74.49l-6.69-3.35c-113.42,237.54-177,503.47-177,784.25,0,602.77,292.68,1137.16,743.65,1468.88Z" transform="translate(-1.15 -649.5)"/></g><path id="Traçat_Exterior_Cercle" data-name="Traçat Exterior Cercle" class="cls-3" d="M3000,699.5c1270.53,0,2300.5,1030,2300.5,2300.5S4270.53,5300.5,3000,5300.5,699.5,4270.53,699.5,3000,1729.47,699.5,3000,699.5m0-50a2368.11,2368.11,0,0,0-473.66,47.75A2337.65,2337.65,0,0,0,1685.78,1051a2357.36,2357.36,0,0,0-851.55,1034.1,2340.16,2340.16,0,0,0-137,441.28,2373.13,2373.13,0,0,0,0,947.32A2337.65,2337.65,0,0,0,1051,4314.22a2357.36,2357.36,0,0,0,1034.1,851.55,2340.16,2340.16,0,0,0,441.28,137,2373.13,2373.13,0,0,0,947.32,0A2337.65,2337.65,0,0,0,4314.22,4949a2357.36,2357.36,0,0,0,851.55-1034.1,2340.16,2340.16,0,0,0,137-441.28,2373.13,2373.13,0,0,0,0-947.32A2337.65,2337.65,0,0,0,4949,1685.78a2357.36,2357.36,0,0,0-1034.1-851.55,2340.16,2340.16,0,0,0-441.28-137A2368.11,2368.11,0,0,0,3000,649.5Z" transform="translate(-1.15 -649.5)"/></g><g id="Lletres"><path class="cls-4" d="M4479,4231.17l-1.88-44.41,46.66-61.05,43.48-9.75,38.11,29.13,1.4,38.68-28.61,54,.49,6.38,13.57,10.37,26.23-34.32-11.32-15,28.36-37.11,48.68,37.2-89.35,116.91-63.57-48.58-.35-37.24,28.76-54.19-.05-7-8.19-6.26-8,2.13-21.2,27.73,11.52,15.12-28.51,37.31Z" transform="translate(-1.15 -649.5)"/><path class="cls-4" d="M4757.71,4063.14q1.54,12.3,3,24.53l-38.57,60.58-46.84,15.13-95.95-61.1-6.15-47.37,40.05-62.91,45.53-14.47,95.95,61.09Q4756.16,4050.85,4757.71,4063.14Zm-136.36-3.46.82,8.56,66.06,42.06,8.66-2.83,16.32-25.63-1.11-9L4646,4030.75l-8.1,2.87Z" transform="translate(-1.15 -649.5)"/><path class="cls-4" d="M4797.87,4025l-33.44-17.88,6.93-23.64L4695,3942.67l-4.38,20.45-36.86-7.76,12.82-57.5,12.19-22.81,116.92,62.53,16-18.77,33.44,17.88Z" transform="translate(-1.15 -649.5)"/><path class="cls-4" d="M4822.32,3732.57l5.83,20.41,20.41-10.21L4892,3761.9l12.63,44.81-30.47,69.17-41.49,20.67-43.43-19.13-6.24-22-19.09,9.7-38.38-16.91-12.42-42.79,30.78-69.86,40.06-19.93Zm-58.17,76.72,15.08,6.65,7.06-3.47,12.25-27.81-2.2-7.56-15.08-6.64-7.07,3.47-12.25,27.8Zm52.14,23.53,20,8.8,7.46-3.84L4856,3810l-2.29-7.86-20-8.82-7,3.5-12.35,28Z" transform="translate(-1.15 -649.5)"/><path class="cls-4" d="M1248.91,3862.17l14.47-12.32-17.91-38.2-25.91,12.15,17.9,38.2-27.29,12.78-17.9-38.19-27.74,13,17.91,38.2,18.73-3.24,15.77,33.66-55.7,26.11-65.86-140.52,34.55-16.2,12.65,15.15,80.72-37.83-3.56-19.41,34.79-16.31,65.75,140.29-55.7,26.11Z" transform="translate(-1.15 -649.5)"/><path class="cls-4" d="M1347.07,4039.37l-23.55-40.62,13.34-13.54-17.5-30.2-7.62-3.13-8.92,5.18-.93,6.92,21.63,57.41-5.08,36.9-43.53,25.22-43.69-16.18-37.9-65.39,7.76-45.71,27.59-16,23.55,40.63-13.34,13.54,18.38,31.72,7.71,2.78,10.21-5.91,1.3-6.27L1255,3959.55l6.31-38.19,41.49-24.05,41.89,15.19,38.53,66.48-7.5,43.82Z" transform="translate(-1.15 -649.5)"/><path class="cls-4" d="M1426.89,4174.3l23.16-22.49L1438.9,4136l-75.09,53,8.14,20.69-31,21.86L1286.25,4154l31-21.86,16.42,14.53,75.28-53.12-11.14-15.8-29,14.28-21.42-30.36,59.29-41.84,100.76,142.79-59.29,41.84Z" transform="translate(-1.15 -649.5)"/><path class="cls-4" d="M1367.59,4266.06l33.87-26.8,29.76,37.61-33.87,26.8Z" transform="translate(-1.15 -649.5)"/><g id="Empordà"><g id="Empordà-2" data-name="Empordà"><path class="cls-3" d="M2100.39,4718.51l8.9-33.47-66.42-38.68-26.26,45.08,66.43,38.68-27.63,47.45L1989,4738.89l-28.09,48.23,66.43,38.69,24.72-24.26,58.52,34.08-56.41,96.87-244.37-142.3,35-60.1,34.65,9.59,81.74-140.36-25.45-25.41,35.23-60.5,244,142.07-56.41,96.87Z" transform="translate(-1.15 -649.5)"/><path class="cls-3" d="M2548.11,4861.49l-52.74,153.63,29.06,19.65-22.58,65.78L2343,5046l22.43-65.35,44.53,5.57,35.64-103.83-86.47,74.32-33.75-11.58-22.59-111.76-35.51,103.43,38.43,23.35-22.43,65.35L2124.47,4971l22.58-65.78,35.86,2.63,52.74-153.64-29.93-19.94,22.74-66.22,141.95,48.73,19.13,110.57,83.87-75.22,132.43,45.46-22.73,66.21Z" transform="translate(-1.15 -649.5)"/><path class="cls-3" d="M2903.26,4989.27l-73,46.24-104.8-13.79-4.17,31.76,33.28,13.61-9,68.5-162.86-21.43,9.07-68.95,35.67-4.54,21.19-161.05L2615.34,4866l9.14-69.4,233.18,30.67,58.49,64Zm-160.67-97.75-6.86,52.17,64.88,8.54,13.12-8.61,4.26-32.31-10.52-11.25Z" transform="translate(-1.15 -649.5)"/><path class="cls-3" d="M3181.15,5118.89q-16.92,15-33.83,29.7l-130.8,4.22-70.9-54.94-6.68-207.17,65-57.94,135.83-4.39L3208.3,4882l6.69,207.17Q3198.06,5103.93,3181.15,5118.89Zm-134.92-208.76-12,10,4.59,142.63,13.15,10.13,55.34-1.78,12.46-11-4.6-142.63-12.65-9.23Z" transform="translate(-1.15 -649.5)"/><path class="cls-3" d="M3290.35,5139.2l-13.7-68.19,32.3-15.83-32-159.24-35.89-2.12-13.8-68.64,233.27-46.88,70.84,39L3550.2,4911l-36.84,46.61,45,47.42,24.68-.29,14.61,72.67-85.24,17.13-96.39-108-23.32,4.69,9.1,45.31,35.9,2.12,13.7,68.18Zm89.73-210.79,63.7-12.8,8.95-11.21-6.73-33.49-12.59-6.89-63.7,12.8Z" transform="translate(-1.15 -649.5)"/><path class="cls-3" d="M3861.89,4978.24l-204.81,80.56-25.46-64.72,29-21.24-59.46-151.17-35.71,4.22-25.63-65.16,206.95-81.39,98.8,32.43,67.83,172.45Zm-113.11-40.07,54.08-21.28,12.69-22.73-47.7-121.28-23.76-7.91-54.94,21.6Z" transform="translate(-1.15 -649.5)"/><path class="cls-3" d="M4253,4680.28l36.52,58.65-137.88,85.87-36.77-59,15.75-20.58-22-19.73L4050,4762l8.4,28.19,23.87-4.09,36.77,59-116.52,72.57-36.77-59,25.07-26.39-46.25-162.56-30.09,8-37-59.42,156.92-97.73,180.38,172.79Zm-220.78,28.08,34.57-21.53-55.45-50.1Z" transform="translate(-1.15 -649.5)"/></g><g id="Rodona_Esquerra" data-name="Rodona Esquerra"><circle class="cls-3" cx="1834.32" cy="3958.7" r="33.42"/></g><g id="Rodona_Dreta" data-name="Rodona Dreta"><circle class="cls-3" cx="4223.61" cy="3909.12" r="33.42"/></g><g id="Accent"><polygon class="cls-3" points="3985.15 3867.6 3856.89 3945.47 3830.79 3899.97 3985.15 3867.6"/></g></g><g id="Crosstraining"><g id="CROSSTRAINING-2" data-name="CROSSTRAINING"><path class="cls-3" d="M1350.71,1817.89l-45.27,72.61-33.18-9.91-33.41,53.58,1.93,16.85,119.93,74.77,16.61-5.82,33.16-53.2-23.5-25.44,45.27-72.61,49.31,30.75q3.18,20.85,5.91,42t5.53,41.73l-67,107.55-91,30.08L1165.27,2015l-12.58-91.41,70-112.21,76.93-25.37Z" transform="translate(-1.15 -649.5)"/><path class="cls-3" d="M1543.26,1904.34l-52-46.21,16.27-32.07-121.39-107.93-30,19.9-52.31-46.52L1462,1513.7l80-11.5,71.46,63.55-1.37,59.39,64.48,10.8,19.53-15.08,55.39,49.25-57.76,65-142-28.29L1536,1724.57l34.53,30.71,30-19.91,52,46.22ZM1488.09,1682l43.17-48.56.4-14.34-25.53-22.7-14.19,2.07L1448.76,1647Z" transform="translate(-1.15 -649.5)"/><path class="cls-3" d="M1934,1489.79q-4.65,22.1-9.46,44L1822,1615.15l-89.68-1.85-128.85-162.36,17.63-85.26,106.45-84.47,87,2.2,128.85,162.36Q1938.62,1467.69,1934,1489.79Zm-232.76-87.21-3.68,15.23,88.71,111.78,16.59.31,43.37-34.42,3.47-16.23L1761,1367.47l-15.67.13Z" transform="translate(-1.15 -649.5)"/><path class="cls-3" d="M2130.39,1165.1l-74.71,41.72-24.27-24.7-55.53,31-5.92,13.81,9.17,16.41,12.59,1.89,105.21-37.76L2164,1217.8l44.71,80L2178,1377l-120.25,67.16-83-15.45L1946.35,1378l74.69-41.72,24.29,24.7,58.32-32.58,5.3-14-10.49-18.77-11.38-2.55-104.8,37.57-69.4-12.6-42.62-76.3,28.9-75.88,122.23-68.28L2101,1112.5Z" transform="translate(-1.15 -649.5)"/><path class="cls-3" d="M2435.33,1048.71l-80.42,29.2-20-28.27-59.79,21.69-8,12.68,6.41,17.67,12.12,3.89,109.92-20.39,64.55,21,31.29,86.19-43.05,73.17-129.46,47-79.5-28.58-19.83-54.62,80.43-29.2,20,28.27,62.79-22.79,7.48-12.93-7.34-20.22-10.82-4.34-109.47,20.26-66.49-23.57-29.82-82.15,40.7-70.27,131.61-47.77,76.19,27.52Z" transform="translate(-1.15 -649.5)"/><path class="cls-3" d="M2741.23,1007,2722,951.43l-34.69,6.19,29.45,164.86,40.43,2.54,12.15,68-170.27,30.41-12.15-68,36.68-15.87-29.53-165.29-34.68,6.19,1.21,58.82L2494,1051.2,2470.69,921l313.51-56,23.25,130.18Z" transform="translate(-1.15 -649.5)"/><path class="cls-3" d="M2854,1182.3l-1.13-69.54,34.62-9.71-2.63-162.42L2850,932.05l-1.14-70,237.91-3.86,62.6,51.16,1.56,95.62-44.68,39.16,35.67,54.79,24.32,4.19,1.21,74.11-86.93,1.41-75.22-123.71-23.8.38.76,46.21,34.91,8.59,1.13,69.54Zm126.41-191,65-1,10.83-9.41-.55-34.15-11.13-9-65,1Z" transform="translate(-1.15 -649.5)"/><path class="cls-3" d="M3514.89,1172l-12.41,68-159.79-29.17,12.49-68.42,25.5-4.65-3-29.38-68-12.41L3297,1122.44l20.41,13-12.49,68.42-135-24.66,12.49-68.42,36.31-2.67,75.08-151.41-27.61-14.35,12.57-68.86,181.86,33.2,17.29,249.19Zm-182.27-127.7,40.06,7.31-7.35-74.37Z" transform="translate(-1.15 -649.5)"/><path class="cls-3" d="M3728.77,1068.09l-53.33,153.43,29.84,20.06-22.83,65.69-154.73-53.78,22.84-65.69,35.85,2.77,53.32-153.43-29.84-20.06,23-66.13,154.74,53.78-23,66.13Z" transform="translate(-1.15 -649.5)"/><path class="cls-3" d="M4180,1200l-33.18,61.65-35-8.43-114.29,212.34-81.39-43.81-8.5-207.23-47.27,87.84,26.28,24.54-33,61.24L3722,1317.19l33-61.24,35,8.42,77-143-26.28-24.54,33.18-61.65,120.87,65.06L3997.4,1296l43.58-81-26.28-24.54,33.17-61.65Z" transform="translate(-1.15 -649.5)"/><path class="cls-3" d="M4295.72,1389.85,4197.15,1519l22.09,28.37-42.2,55.28-130.21-99.4,42.21-55.28,33.19,13.83,98.57-129.11-22.09-28.38,42.48-55.64,130.2,99.4-42.48,55.64Z" transform="translate(-1.15 -649.5)"/><path class="cls-3" d="M4683.27,1655.21l-50.68,48.3L4602,1684.65,4427.4,1851l-63.76-66.91,56.28-199.62-72.21,68.81,17.36,31.48-50.35,48L4211.5,1624.41l50.35-48,30.62,18.87,117.59-112.06-17.36-31.49,50.68-48.29,94.7,99.38-58.24,187,66.58-63.44-17.36-31.49,50.68-48.3Z" transform="translate(-1.15 -649.5)"/><path class="cls-3" d="M4736,1935.14l23-25.93-37.07-56.68-16.09-5.33-118.29,77.35-1.7,17.51,29.05,44.42,17.72,5.36,36.77-24-23.54-36,45.95-30,75.13,114.88-158.55,103.68L4569,2060.19l16.05-21.43-37.59-11.5-46.32-70.85,11-95.21,167.35-109.43,88.22,27,74.37,113.74-9.09,80.85-50.42,33Z" transform="translate(-1.15 -649.5)"/></g><g id="Rodona_Esquerra-2" data-name="Rodona Esquerra"><circle class="cls-3" cx="1203.46" cy="1519.57" r="33.42"/></g><g id="Rodona_Dreta-2" data-name="Rodona Dreta"><circle class="cls-3" cx="4788.81" cy="1480" r="33.42"/></g></g></g><g id="Illustracions"><ellipse class="cls-5" cx="2973.85" cy="3704.5" rx="647" ry="196.72"/><g id="Hombra_Pals" data-name="Hombra Pals" class="cls-6"><path class="cls-7" d="M4865.54,2578.06a29.47,29.47,0,0,0-6.43.71c-.28.06-.55.13-.8.2l-.75.15-102.77,23-.11,0h-.1c-11.85,2.66-26.71,13.21-30.85,48.5a184.56,184.56,0,0,0-.8,29.86l-64,12.54q9.69,50.82,16.24,102.32l72.06-14.11c13.38,28.92,31.48,50.29,52.07,50.29a29.53,29.53,0,0,0,6.43-.71l.19-.05.12,0,102.77-23c.26-.05.5-.12.75-.18l.76-.15c10.22-2.3,22.75-10.55,28.6-35.71l343.7-67.48q-11.39-85.68-29.15-170L4903.13,2603C4892.19,2587.79,4879.43,2578.06,4865.54,2578.06Z" transform="translate(-1.15 -649.5)"/><path class="cls-7" d="M1122.83,3556.68a29.64,29.64,0,0,0,5.65-.54l.78-.18c.26,0,.52-.08.78-.13l103.35-20.29.3-.07.15,0c11.67-2.29,26.81-12.44,31.88-47.61a178.43,178.43,0,0,0,1.64-25.05l101.56-19.88q-13.23-50.1-23.33-100.94l-98,19.19c-12.89-31.93-31.42-56.16-53.41-56.16h0a28.86,28.86,0,0,0-5.65.55l-.15,0-.16,0-103.35,20.29-.74.16-.75.13c-11,2.17-24.88,11.1-30.85,40.55l-315.66,62q15.55,84.91,37.48,168.39l314.11-61.67C1098.47,3548.52,1110.07,3556.68,1122.83,3556.68Z" transform="translate(-1.15 -649.5)"/><path class="cls-7" d="M4915.62,3326.19l-.75-.13-.74-.16-103.35-20.29-.16,0-.15,0a28.86,28.86,0,0,0-5.65-.55h0c-22,0-40.52,24.23-53.41,56.16l-98-19.19q-10.09,50.84-23.33,100.93l101.56,19.89a178.43,178.43,0,0,0,1.64,25.05c5.07,35.17,20.21,45.32,31.88,47.61l.15,0,.3.07L4869,3555.83c.26.05.52.1.78.13l.78.18a29.64,29.64,0,0,0,5.65.54c12.76,0,24.36-8.16,34.37-21.25l314.11,61.67q21.92-83.45,37.48-168.39l-315.66-62C4940.5,3337.29,4926.65,3328.36,4915.62,3326.19Z" transform="translate(-1.15 -649.5)"/><path class="cls-7" d="M1087.71,2806.44l.76.15c.25.06.49.13.75.18l102.77,23,.12,0,.19.05a29.53,29.53,0,0,0,6.43.71c20.59,0,38.69-21.37,52.07-50.29l72.06,14.11q6.56-51.48,16.24-102.32l-64-12.54a184.56,184.56,0,0,0-.8-29.86c-4.14-35.29-19-45.84-30.85-48.5h-.1l-.11,0-102.77-23-.75-.15-.8-.2a29.47,29.47,0,0,0-6.43-.71c-13.89,0-26.65,9.73-37.59,24.94l-350.31-68.77q-17.76,84.32-29.15,170l343.7,67.48C1065,2795.89,1077.49,2804.14,1087.71,2806.44Z" transform="translate(-1.15 -649.5)"/></g><path class="cls-5" d="M3271.07,3091.76,4679,2817c-4-37-11-88-15-104L3000,3038.67,1336,2711c-6,31-11,73-15,107l1407.93,273.76L1350.46,3361.82c5.08,34.42,15.34,67.23,22.54,101.18l1627-318.16L4624,3464c8-25,18.46-70.82,25-101Z" transform="translate(-1.15 -649.5)"/><path id="Hombra_Cantir" data-name="Hombra Cantir" class="cls-8" d="M1991,2374.93c-13.43,80.65-36.22,169.66,77.45,163.9,122.41-10,96.91,173.91,91.28,249.84-204.75,371.71-42.42,786.09,204.84,1133.27,95.87,145.3,139.19,220.32,128.6,347.63-20.78,26.37-48.33,67.62-10.3,113C2687,4417,3390.29,4528.76,3456,4355c37.66-45.2,56.69-72.81,36-99.18-7.76-118.38,50-210,186.85-427.43,234.36-340.91,299.92-686.52,158.53-1045.53-17.43-80.49-6.75-109.23,33.53-153.07a48.22,48.22,0,0,1,38-18c52.66-2.25,159.81-17.32,143.65-96.9-.56-9.67-2.95-19.8,1.16-30,47.46,33,95-18.59,67.68-61.93-26.91-49.55-35.18-80.87-109.81-142.85-78.91-57.31-176-122.8-228.12-94.92-19.09,14.11-23.44,40.09-9.91,59.15l9.26,13c-6.1,5.66-25.43.51-34.2.86-49.25-5-93.71,35.15-90.79,82.06l2.77,66.07c.31,7.32-2.87,10.61-15.55,20.45-34.89,32.22-63,46.16-97.8,46.24-34.42,7.66-73.27-14.13-115.54-39.13-7.58-5.48-8.77-10.11-3.6-18,478.34-590.52-197.52-976.09-751.11-693.2-232.41,142.67-180.23,478.53-30.11,671.85,3.7,7.05,2.82,11-4.32,15.46-31,21.85-95.92,42-144.75,23.75-262.9-46.49,91.14-218.45-238.71-240.79-57.1-10.89-119.13-36.41-179.36-73.81-16.56-10.49-39.33-10.73-56-.37-25.88,16.52-59.67,38.82-48.68,73.25C1992.94,2258.23,1998.3,2319.75,1991,2374.93ZM2638.68,2028c0-100.75,38.53-172,117.82-217.82,122.14-78.93,468.41-78.92,590.56,0,170.35,91.08,147.73,364-13.21,462.66C3103,2434.58,2620.31,2372.77,2638.68,2028Z" transform="translate(-1.15 -649.5)"/><g id="Pals"><path class="cls-9" d="M1214.82,3435c-27.82,0-50.61-51.52-60-99.39-10.32-52.52-6.43-108.87,20.83-115.65.32-.1.65-.19.93-.25a21.88,21.88,0,0,1,4.19-.42c27.81,0,50.61,51.55,60,99.44,5.38,27.42,6.69,54.05,3.68,75-4.4,30.55-16.32,39.12-25.55,40.93-.33.06-.7.11-1.07.14A20.92,20.92,0,0,1,1214.82,3435Z" transform="translate(-1.15 -649.5)"/><path d="M1180.75,3228c18.67,0,41.27,40.58,51.44,92.38,5.2,26.47,6.48,52.06,3.6,72.06-1.65,11.51-6.25,31.17-18.43,33.56h-.06l-.08,0-.38,0-.37,0a13.1,13.1,0,0,1-1.66.11c-18.66,0-41.26-40.56-51.43-92.34-5.17-26.31-6.46-51.79-3.64-71.72,2.72-19.27,9.23-31.56,17.84-33.71l.37-.1.4-.12a12.84,12.84,0,0,1,2.4-.23m0-17.12h0a30.07,30.07,0,0,0-5.69.56,15,15,0,0,0-1.63.41c-11.38,2.84-25.78,13.58-30.64,47.91-3.08,21.79-1.73,49.28,3.8,77.42,10.38,52.84,35.5,106.15,68.22,106.15a28.47,28.47,0,0,0,3.92-.26,15.2,15.2,0,0,0,1.93-.28c11.74-2.3,27-12.51,32.07-47.91,3.15-21.86,1.82-49.49-3.75-77.8-10.38-52.86-35.5-106.2-68.23-106.2Z" transform="translate(-1.15 -649.5)"/><path class="cls-9" d="M4894.77,2676.24a8.37,8.37,0,0,1-8.2-6.76l-27-137.44a8.39,8.39,0,0,1,6.6-9.83l1063.5-208.79a9.09,9.09,0,0,1,1.63-.16,8.91,8.91,0,0,1,1,.07c.85-.08,1.71-.12,2.57-.12,22.83,0,45.07,28.95,52.9,68.85,3.85,19.58,3.56,38.89-.81,54.38-4.92,17.43-14.54,28.38-27.08,30.85L4896.39,2676.08A9,9,0,0,1,4894.77,2676.24Z" transform="translate(-1.15 -649.5)"/><path class="cls-7" d="M5934.89,2321.58c18.25,0,37.71,26.54,44.7,62.09,7.43,37.87-2.1,71.63-21.31,75.4h0l-1063.5,208.78-27-137.44,1063.5-208.78.05.28h0a18.48,18.48,0,0,1,3.55-.34m0-16.74c-.85,0-1.72,0-2.57.09l-1,0a16.75,16.75,0,0,0-3.23.31L4864.55,2514a16.74,16.74,0,0,0-13.2,19.65l27,137.44a16.75,16.75,0,0,0,16.41,13.52,17.11,17.11,0,0,0,3.24-.32l1063.21-208.73q.44-.07.87-.18c15.51-3.3,27.2-16.29,33-36.67,4.72-16.72,5.07-37.42,1-58.27-8.75-44.51-33.88-75.6-61.12-75.6Z" transform="translate(-1.15 -649.5)"/><path class="cls-9" d="M65.1,3631.56c-22.81,0-45.06-28.95-52.9-68.85-3.84-19.59-3.56-38.9.82-54.38,4.92-17.43,14.54-28.38,27.08-30.85L1103.61,3268.7a8.16,8.16,0,0,1,1.62-.16,8.36,8.36,0,0,1,8.2,6.75l27,137.44a8.35,8.35,0,0,1-6.6,9.82L70.34,3631.34a8.09,8.09,0,0,1-1.62.16,8.89,8.89,0,0,1-1-.06C66.83,3631.52,66,3631.56,65.1,3631.56Z" transform="translate(-1.15 -649.5)"/><path class="cls-7" d="M1105.22,3276.91l27,137.44L68.72,3623.13l-.06-.28a35.07,35.07,0,0,1-3.55.34c-18.25,0-37.71-26.54-44.7-62.09-7.44-37.88,2.1-71.64,21.3-75.4h0l1063.5-208.78m0-16.75a17.21,17.21,0,0,0-3.25.32L38.64,3469.24l-.52.1c-15.61,3.23-27.38,16.25-33.16,36.72-4.72,16.72-5.07,37.42-1,58.27,8.75,44.51,33.88,75.6,61.12,75.6q1.27,0,2.55-.09c.34,0,.69,0,1,0a17.19,17.19,0,0,0,3.25-.31l1063.5-208.79a16.74,16.74,0,0,0,13.2-19.65l-27-137.44a16.75,16.75,0,0,0-16.41-13.52Z" transform="translate(-1.15 -649.5)"/><path class="cls-10" d="M1108.94,3455.78c-27.82,0-50.61-51.54-60-99.43-5.39-27.42-6.69-54-3.68-75,4.4-30.54,16.32-39.11,25.55-40.92.28,0,.57-.1.85-.13l.71-.18,104-20.42a8.26,8.26,0,0,1,1.63-.16,8.4,8.4,0,0,1,1.82,16.59c-10.73,2.39-19.41,41.06-8.57,96.2,10.45,53.21,32.43,85.88,43.58,85.88a4.77,4.77,0,0,0,.76-.06,8.18,8.18,0,0,1,1.4-.12,8.4,8.4,0,0,1,1.62,16.63l-104,20.42-.74.11-.76.18A21.15,21.15,0,0,1,1108.94,3455.78Z" transform="translate(-1.15 -649.5)"/><path class="cls-7" d="M1173.65,3228.51c-14.26,2.85-21.35,50.92-10.64,105.44,10.32,52.5,33.46,91.38,49.64,92.77.73,0,3.6-.2,4.31-.32l-2.15.18L1113,3446.87l0-.23a11.9,11.9,0,0,1-1.52.53,12.77,12.77,0,0,1-2.47.24c-18.77,0-41.49-40.17-51.81-92.68-10.77-54.82-3.93-102.32,15.27-106.09a12.4,12.4,0,0,1,1.61-.08l0-.23m104-37.15a16.45,16.45,0,0,0-3.2.31l-104,20.42-.74.16-.76.13c-12,2.35-27.19,12.56-32.28,48-3.15,21.85-1.82,49.48,3.75,77.8,10.38,52.86,35.51,106.19,68.23,106.19a29.27,29.27,0,0,0,5.69-.55l.79-.17.78-.14,104-20.42c4.5-.88,13.74-5.12,16.2-9s-2.07-7-3.18-11.49c-1.89-7.56,2.19-2.77-5.37-2.77-.64,0,.64-.07,0,0-11.41-2.85-38.39-37.91-48.41-88.9s-2.94-87.95,11.32-99.36c8.24-2.29,5.2,2.24,3.71-6.28a16.79,16.79,0,0,0-16.53-13.9Z" transform="translate(-1.15 -649.5)"/><path class="cls-10" d="M4813.77,2725.34a8.38,8.38,0,0,1-8.31-7.32V2718a8.36,8.36,0,0,1,6.27-9.16c10.66-2.67,18.32-41.56,6-96.4-12.22-54.54-34.78-84.7-45.7-84.7a4.31,4.31,0,0,0-.88.09,9.09,9.09,0,0,1-1.63.16,8.4,8.4,0,0,1-1.83-16.59l103.42-23.18c.24-.05.5-.1.75-.13s.55-.16.83-.22a21.52,21.52,0,0,1,4.62-.51c27.57,0,51.49,50.71,62.05,97.82,11.89,53.11,9.25,110.17-18.81,116.47l-.84.15c-.23.07-.47.14-.71.19l-103.43,23.18A8.08,8.08,0,0,1,4813.77,2725.34Z" transform="translate(-1.15 -649.5)"/><path class="cls-7" d="M4877.34,2495.7c18.71,0,42.26,39.4,53.88,91.28,12.21,54.52,6.63,102.18-12.47,106.47a14.35,14.35,0,0,1-1.61.12l0,.23L4813.77,2717v-.05c18.84-4.73,24.31-52.13,12.17-106.35-11.62-51.88-35.16-91.24-53.87-91.24a12.33,12.33,0,0,0-2.5.25v-.05L4873,2496.36l.05.23a11.47,11.47,0,0,1,1.51-.58,12.6,12.6,0,0,1,2.81-.31m0-16.74a29.23,29.23,0,0,0-6.47.72c-.28.06-.55.13-.8.2s-.51.09-.76.15l-103.42,23.18a16.77,16.77,0,0,0,3.67,33.12,17.17,17.17,0,0,0,2.37-.17c6.79,2.49,26.3,27.37,37.66,78.08s4.33,81.54-.75,86.69a16.77,16.77,0,0,0,4.94,32.79,17,17,0,0,0,3.65-.41l103.43-23.18.75-.19.76-.15c11.86-2.66,26.82-13.27,31-48.79,2.57-21.93.51-49.52-5.8-77.68-11.63-51.94-37.85-104.36-70.21-104.36Z" transform="translate(-1.15 -649.5)"/><path class="cls-9" d="M4810.65,2725.72c-27.58,0-51.49-50.7-62-97.81-11.9-53.12-9.27-110.18,18.8-116.47a9.7,9.7,0,0,1,1-.16,21.7,21.7,0,0,1,3.62-.31c27.57,0,51.49,50.69,62,97.78,11.7,52.25,9.29,108.71-17.82,116.17-.34.12-.69.22-1,.29a21.37,21.37,0,0,1-4.65.51Z" transform="translate(-1.15 -649.5)"/><path d="M4772.06,2519.72c18.58,0,42.08,39.94,53.5,90.94,5.86,26.16,7.83,51.6,5.53,71.61-1.29,11.3-5.23,30.78-17,34.19l-.34.1-.35.12a12.32,12.32,0,0,1-2.72.3c-18.58,0-42.08-40-53.51-91-5.9-26.33-7.85-51.88-5.5-71.95,1.35-11.55,5.46-31.33,17.68-34.08l.39,0,.4-.06a12.61,12.61,0,0,1,2-.15m0-17.12a29.42,29.42,0,0,0-4.6.36,17.84,17.84,0,0,0-1.78.29c-11.92,2.68-26.88,13.29-31,48.81-2.57,21.93-.51,49.52,5.8,77.68,11.63,51.94,37.85,104.35,70.21,104.35a29.83,29.83,0,0,0,6.47-.71,15.93,15.93,0,0,0,1.69-.48c11.48-3.32,25.37-14.55,29.29-48.68,2.5-21.86.43-49.31-5.84-77.3-11.63-51.92-37.84-104.32-70.2-104.32Z" transform="translate(-1.15 -649.5)"/><path class="cls-11" d="M1215.86,3370.26a8.16,8.16,0,0,1-1.39-.12c-3.07-.51-18.71-4.92-25.66-40.93s6.52-43.25,10.81-44.66a8.64,8.64,0,0,1,1-.26l3562.65-699.42a11.71,11.71,0,0,1,2-.18c5.74,0,19.79,3.58,26.41,36.7,7.91,39.62-6,47.54-10.5,49a8.48,8.48,0,0,1-1,.27L1217.47,3370.1A8.7,8.7,0,0,1,1215.86,3370.26Z" transform="translate(-1.15 -649.5)"/><path class="cls-7" d="M4774.06,2591.33c2.49,0,9.24,3.84,14.94,32.37,7.08,35.44-2.49,37.34-2.49,37.34L1217.14,3362.75s-8.21-5.85-14.4-38c-5.51-24.26-.54-34.22-.54-34.22l3562.68-697.47a2.37,2.37,0,0,1,.35,0m-2.78-16.54c-.27,0-.53.08-.8.14L1204.71,3273.23c-.53.1-12.24,2.94-17.47,4.24-1.39.35-7.44,20.55-.94,50.47,7.79,40.4,20.21,48.79,25.86,49.74.93.16,11.57-2,12.63-2.22l3556.94-696.57c.7-.14,14.06-2.69,14.74-2.91,0,0,16.47-12.18,7.47-57.26-7.84-39.2-24.9-44.81-27.39-44.81C4776.55,2573.91,4763.33,2576.39,4762.45,2576.52Z" transform="translate(-1.15 -649.5)"/><path class="cls-7" d="M5049.29,2644.64a2.64,2.64,0,0,1-2.72-2.34l0-.3a2.81,2.81,0,0,1,.62-2.07,2.77,2.77,0,0,1,1.91-1c4.61-.41,8.86-3,12.65-7.59,10.38-12.67,15.17-38.44,12.19-65.65-4.18-38.19-22.92-69.06-40.36-67.53a2.82,2.82,0,0,1-3-2.54,2.79,2.79,0,0,1,2.53-3c21.31-1.86,41.75,29.92,46.41,72.49,3.17,29.07-2,55.81-13.42,69.79-4.47,5.45-9.83,8.72-15.55,9.5a2.56,2.56,0,0,1-.88.25Z" transform="translate(-1.15 -649.5)"/><path class="cls-7" d="M5278.07,2600a2.64,2.64,0,0,1-2.72-2.34l0-.3a2.78,2.78,0,0,1,2.52-3.08c4.61-.42,8.86-3,12.65-7.59,10.38-12.67,15.17-38.44,12.19-65.65-4.18-38.19-22.81-69.07-40.36-67.53a2.79,2.79,0,0,1-.5-5.56c21.27-1.9,41.75,29.92,46.41,72.49,3.18,29.07-2,55.81-13.42,69.79-4.47,5.45-9.83,8.72-15.55,9.5a2.56,2.56,0,0,1-.88.25Z" transform="translate(-1.15 -649.5)"/><path class="cls-7" d="M5601.71,2533c-1.39,0-.46-4,.29-4.06,4.6-.41,8.35-3.62,12.13-8.24,10.38-12.67,15.17-39.44,12.19-66.65-4.08-37.25-21.76-67.59-39-67.59-.44,0-.87,0-1.3.06a2.81,2.81,0,0,1-3-2.54,2.78,2.78,0,0,1,2.53-3c21.24-1.87,41.74,29.92,46.4,72.49,3.18,29.06-2,56.81-13.42,70.79a23.12,23.12,0,0,1-15.55,8.5,2.5,2.5,0,0,1-.87.25Z" transform="translate(-1.15 -649.5)"/><path class="cls-7" d="M5841.65,2488.39a2.63,2.63,0,0,1-2.72-2.33l0-.3a2.8,2.8,0,0,1,2.53-3.08c4.6-.42,8.86-3,12.65-7.59,10.38-12.67,15.16-38.44,12.19-65.65-4.18-38.19-22.92-69-40.36-67.54a2.79,2.79,0,1,1-.5-5.55c21.25-1.92,41.74,29.92,46.4,72.49,3.18,29.06-2,55.81-13.42,69.79-4.47,5.45-9.82,8.72-15.55,9.5a2.5,2.5,0,0,1-.87.25Z" transform="translate(-1.15 -649.5)"/><path class="cls-7" d="M826.22,3480.86c-20.58,0-40.21-30.87-45.29-72-3.58-29,1.19-55.82,12.46-70,4.39-5.52,9.71-8.86,15.41-9.72a2.6,2.6,0,0,1,.87-.27,2.68,2.68,0,0,1,3.08,2.28l0,.3a2.81,2.81,0,0,1-.59,2.09,2.75,2.75,0,0,1-1.9,1c-4.6.48-8.82,3.09-12.54,7.77-10.22,12.81-14.64,38.64-11.29,65.8,4.71,38.14,23.61,68.73,41.29,67a2.79,2.79,0,1,1,.57,5.55C827.63,3480.82,826.93,3480.86,826.22,3480.86Z" transform="translate(-1.15 -649.5)"/><path class="cls-7" d="M591.86,3525.5c-20.58,0-40.21-30.87-45.29-72-3.58-29,1.19-55.82,12.46-70,4.39-5.52,9.7-8.86,15.41-9.72a2.6,2.6,0,0,1,.87-.27,2.69,2.69,0,0,1,3.08,2.28l0,.3a2.8,2.8,0,0,1-.58,2.09,2.75,2.75,0,0,1-1.9,1c-4.6.48-8.82,3.09-12.55,7.77-10.21,12.81-14.63,38.64-11.28,65.8,4.71,38.14,24.26,68.82,41.91,67.09,1.4-.17,2.28.84,2.44,2.38a2.8,2.8,0,0,1-2.5,3.06A20.94,20.94,0,0,1,591.86,3525.5Z" transform="translate(-1.15 -649.5)"/><path class="cls-7" d="M472.19,3550.31c-20.58,0-37.72-33.36-42.8-74.45-3.58-29,1.19-55.82,12.46-70,4.39-5.52,9.7-8.86,15.41-9.72a2.6,2.6,0,0,1,.87-.27,2.69,2.69,0,0,1,3.07,2.28l0,.3a2.8,2.8,0,0,1-.58,2.09,2.77,2.77,0,0,1-1.9,1c-4.6.48-8.82,3.09-12.55,7.77-10.21,12.81-14.63,38.64-11.28,65.8,4.71,38.14,21.08,71.19,38.8,69.47a2.79,2.79,0,0,1,.56,5.55A20.94,20.94,0,0,1,472.19,3550.31Z" transform="translate(-1.15 -649.5)"/><path class="cls-7" d="M133.7,3617.27c-20.58,0-45.2-33.36-50.27-74.44-3.59-29,3.68-53.34,14.95-67.48,4.39-5.52,9.7-8.86,15.41-9.72a2.53,2.53,0,0,1,.87-.27,2.67,2.67,0,0,1,3.07,2.28l0,.3a2.85,2.85,0,0,1-.58,2.09,2.77,2.77,0,0,1-1.9,1c-4.6.48-8.82,3.09-12.55,7.77C92.53,3491.64,85.61,3515,89,3542.14c4.7,38.14,28.64,71.25,46.26,69.47a2.83,2.83,0,0,1,3.06,2.49,2.79,2.79,0,0,1-2.49,3.06C135.1,3617.23,134.4,3617.27,133.7,3617.27Z" transform="translate(-1.15 -649.5)"/><path class="cls-9" d="M4785.18,3435c27.82,0,50.61-51.52,60-99.39,10.32-52.52,6.43-108.87-20.83-115.65-.32-.1-.65-.19-.93-.25a21.88,21.88,0,0,0-4.19-.42c-27.81,0-50.61,51.55-60,99.44-5.38,27.42-6.69,54.05-3.68,75,4.4,30.55,16.32,39.12,25.55,40.93.33.06.7.11,1.07.14A20.92,20.92,0,0,0,4785.18,3435Z" transform="translate(-1.15 -649.5)"/><path d="M4819.25,3228h0a12.11,12.11,0,0,1,2.36.23l.41.12.4.1c8.61,2.15,15.11,14.44,17.84,33.71,2.82,19.93,1.53,45.41-3.64,71.72-10.17,51.78-32.77,92.34-51.43,92.34a13.1,13.1,0,0,1-1.66-.11l-.36,0-.38,0-.08,0h-.07c-12.18-2.39-16.78-22-18.43-33.56-2.88-20-1.6-45.59,3.6-72.06,10.18-51.8,32.77-92.38,51.44-92.38m0-17.12h0c-32.73,0-57.85,53.34-68.23,106.2-5.57,28.31-6.9,55.94-3.75,77.8,5.09,35.4,20.33,45.61,32.07,47.91a15.2,15.2,0,0,0,1.93.28,28.47,28.47,0,0,0,3.92.26c32.72,0,57.84-53.31,68.22-106.15,5.53-28.14,6.88-55.63,3.8-77.42-4.86-34.33-19.26-45.07-30.64-47.91a15,15,0,0,0-1.63-.41,30.07,30.07,0,0,0-5.69-.56Z" transform="translate(-1.15 -649.5)"/><path class="cls-9" d="M1105.23,2676.24a8.37,8.37,0,0,0,8.2-6.76l27-137.44a8.39,8.39,0,0,0-6.6-9.83L70.34,2313.42a9.09,9.09,0,0,0-1.63-.16,8.91,8.91,0,0,0-1,.07c-.85-.08-1.71-.12-2.57-.12-22.83,0-45.07,28.95-52.9,68.85-3.85,19.58-3.56,38.89.81,54.38,4.92,17.43,14.54,28.38,27.08,30.85l1063.51,208.79A9,9,0,0,0,1105.23,2676.24Z" transform="translate(-1.15 -649.5)"/><path class="cls-7" d="M65.11,2321.58a18.48,18.48,0,0,1,3.55.34h0l0-.28,1063.5,208.78-27,137.44L41.72,2459.08h0c-19.21-3.77-28.74-37.53-21.31-75.4,7-35.55,26.45-62.09,44.7-62.09m0-16.74c-27.24,0-52.37,31.09-61.12,75.6-4.1,20.85-3.75,41.55,1,58.27,5.76,20.38,17.45,33.37,33,36.67q.44.1.87.18L1102,2684.29a17.11,17.11,0,0,0,3.24.32,16.75,16.75,0,0,0,16.41-13.52l27-137.44a16.74,16.74,0,0,0-13.2-19.65L72,2305.21a16.75,16.75,0,0,0-3.23-.31l-1,0c-.85-.06-1.72-.09-2.57-.09Z" transform="translate(-1.15 -649.5)"/><path class="cls-9" d="M5934.9,3631.56c22.81,0,45.06-28.95,52.9-68.85,3.84-19.59,3.56-38.9-.82-54.38-4.92-17.43-14.54-28.38-27.08-30.85L4896.39,3268.7a8.16,8.16,0,0,0-1.62-.16,8.36,8.36,0,0,0-8.2,6.75l-27,137.44a8.35,8.35,0,0,0,6.6,9.82l1063.49,208.79a8.09,8.09,0,0,0,1.62.16,8.89,8.89,0,0,0,1-.06C5933.17,3631.52,5934,3631.56,5934.9,3631.56Z" transform="translate(-1.15 -649.5)"/><path class="cls-7" d="M4894.78,3276.91l1063.5,208.78h0c19.2,3.76,28.74,37.52,21.3,75.4-7,35.55-26.45,62.09-44.7,62.09a35.07,35.07,0,0,1-3.55-.34l-.06.28-1063.5-208.78,27-137.44m0-16.75a16.75,16.75,0,0,0-16.41,13.52l-27,137.44a16.74,16.74,0,0,0,13.2,19.65l1063.5,208.79a17.19,17.19,0,0,0,3.25.31c.35,0,.7,0,1,0q1.27.09,2.55.09c27.24,0,52.37-31.09,61.12-75.6,4.1-20.85,3.75-41.55-1-58.27-5.78-20.47-17.55-33.49-33.16-36.72l-.52-.1L4898,3260.48a17.21,17.21,0,0,0-3.25-.32Z" transform="translate(-1.15 -649.5)"/><path class="cls-10" d="M4891.06,3455.78c27.82,0,50.61-51.54,60-99.43,5.39-27.42,6.69-54,3.68-75-4.4-30.54-16.32-39.11-25.55-40.92-.28,0-.57-.1-.85-.13l-.71-.18-104-20.42a8.26,8.26,0,0,0-1.63-.16,8.4,8.4,0,0,0-1.82,16.59c10.73,2.39,19.41,41.06,8.57,96.2-10.45,53.21-32.43,85.88-43.58,85.88a4.77,4.77,0,0,1-.76-.06,8.18,8.18,0,0,0-1.4-.12,8.4,8.4,0,0,0-1.62,16.63l104,20.42.74.11.76.18A21.15,21.15,0,0,0,4891.06,3455.78Z" transform="translate(-1.15 -649.5)"/><path class="cls-7" d="M4926,3248.33l0,.23a12.4,12.4,0,0,1,1.61.08c19.2,3.77,26,51.27,15.27,106.09-10.32,52.51-33,92.68-51.81,92.68a12.77,12.77,0,0,1-2.47-.24,11.9,11.9,0,0,1-1.52-.53l0,.23-101.84-20.29-2.15-.18c.71.12,3.58.32,4.31.32,16.18-1.39,39.32-40.27,49.64-92.77,10.71-54.52,3.62-102.59-10.64-105.44m-4.29-17.33a16.79,16.79,0,0,0-16.53,13.9c-1.49,8.52-4.53,4,3.71,6.28,14.26,11.41,21.34,48.38,11.32,99.36s-37,86.05-48.41,88.9c-.64-.07.64,0,0,0-7.56,0-3.48-4.79-5.37,2.77-1.11,4.45-5.64,7.62-3.18,11.49s11.7,8.11,16.2,9l104,20.42.78.14.79.17a29.27,29.27,0,0,0,5.69.55c32.72,0,57.85-53.33,68.23-106.19,5.57-28.32,6.9-55.95,3.75-77.8-5.09-35.4-20.33-45.61-32.28-48l-.76-.13-.74-.16-104-20.42a16.45,16.45,0,0,0-3.2-.31Z" transform="translate(-1.15 -649.5)"/><path class="cls-10" d="M1186.23,2725.34a8.38,8.38,0,0,0,8.31-7.32V2718a8.36,8.36,0,0,0-6.27-9.16c-10.66-2.67-18.32-41.56-6-96.4,12.22-54.54,34.78-84.7,45.7-84.7a4.31,4.31,0,0,1,.88.09,9.09,9.09,0,0,0,1.63.16,8.4,8.4,0,0,0,1.83-16.59l-103.42-23.18c-.24-.05-.5-.1-.75-.13s-.55-.16-.83-.22a21.52,21.52,0,0,0-4.62-.51c-27.57,0-51.49,50.71-62.05,97.82-11.89,53.11-9.25,110.17,18.81,116.47l.84.15c.23.07.47.14.71.19l103.43,23.18A8.08,8.08,0,0,0,1186.23,2725.34Z" transform="translate(-1.15 -649.5)"/><path class="cls-7" d="M1122.66,2495.7a12.6,12.6,0,0,1,2.81.31,11.47,11.47,0,0,1,1.51.58l0-.23,103.42,23.18v.05a12.33,12.33,0,0,0-2.5-.25c-18.71,0-42.25,39.36-53.87,91.24-12.14,54.22-6.67,101.62,12.17,106.35v.05l-103.42-23.18,0-.23a14.35,14.35,0,0,1-1.61-.12c-19.1-4.29-24.68-51.95-12.47-106.47,11.62-51.88,35.17-91.28,53.88-91.28m0-16.74c-32.36,0-58.58,52.42-70.21,104.36-6.31,28.16-8.37,55.75-5.8,77.68,4.16,35.52,19.12,46.13,31,48.79l.76.15.75.19,103.43,23.18a16.71,16.71,0,0,0,19.91-12.31,16.75,16.75,0,0,0-11.32-20.07c-5.08-5.15-12.11-36-.75-86.69s30.87-75.59,37.66-78.08a17.17,17.17,0,0,0,2.37.17,16.76,16.76,0,0,0,3.67-33.12L1130.69,2480c-.25-.06-.5-.11-.76-.15s-.52-.14-.8-.2a29.23,29.23,0,0,0-6.47-.72Z" transform="translate(-1.15 -649.5)"/><path class="cls-9" d="M1189.35,2725.72c27.58,0,51.49-50.7,62-97.81,11.9-53.12,9.27-110.18-18.8-116.47a9.7,9.7,0,0,0-1-.16,21.7,21.7,0,0,0-3.62-.31c-27.57,0-51.49,50.69-62,97.78-11.7,52.25-9.29,108.71,17.82,116.17.34.12.69.22,1,.29a21.37,21.37,0,0,0,4.65.51Z" transform="translate(-1.15 -649.5)"/><path class="cls-12" d="M1189.35,2725.54a20.76,20.76,0,0,1-4.59-.51c-.3-.07-.58-.15-.86-.24l-.34-.11c-15.73-4.55-21.28-25-23.16-41.43-2.4-20.95-.38-47.39,5.69-74.46,10.87-48.52,35.6-97.63,61.85-97.63a21.13,21.13,0,0,1,3.28.26l.39,0c.3,0,.59.08.89.14,16.55,3.72,22.39,24.59,24.36,41.44,2.46,21,.45,47.57-5.65,74.82C1240.34,2676.4,1215.6,2725.54,1189.35,2725.54Z" transform="translate(-1.15 -649.5)"/><path d="M1227.94,2519.72a12.61,12.61,0,0,1,2,.15l.29,0,.4,0c12.32,2.77,16.43,22.55,17.78,34.1,2.35,20.07.4,45.62-5.5,71.95-11.43,51-34.93,91-53.51,91a12.17,12.17,0,0,1-2.71-.3l-.35-.12-.35-.1c-11.8-3.41-15.74-22.89-17-34.19-2.3-20-.33-45.45,5.53-71.61,11.42-51,34.92-90.94,53.5-90.94m0-17.12c-32.36,0-58.57,52.4-70.2,104.32-6.27,28-8.34,55.44-5.84,77.3,3.92,34.13,17.81,45.36,29.29,48.68a15.93,15.93,0,0,0,1.69.48,29.83,29.83,0,0,0,6.47.71c32.36,0,58.58-52.41,70.21-104.35,6.31-28.16,8.37-55.75,5.8-77.68-4.16-35.52-19.12-46.13-31-48.81a17.84,17.84,0,0,0-1.78-.29,29.42,29.42,0,0,0-4.6-.36Z" transform="translate(-1.15 -649.5)"/><path class="cls-11" d="M4784.14,3370.26a8.16,8.16,0,0,0,1.39-.12c3.07-.51,18.71-4.92,25.66-40.93s-6.52-43.25-10.81-44.66a8.64,8.64,0,0,0-1-.26L1236.73,2584.87a11.71,11.71,0,0,0-2-.18c-5.74,0-19.79,3.58-26.41,36.7-7.91,39.62,6,47.54,10.5,49a8.48,8.48,0,0,0,1,.27L4782.53,3370.1A8.7,8.7,0,0,0,4784.14,3370.26Z" transform="translate(-1.15 -649.5)"/><path class="cls-7" d="M1234.77,2593.06a2.37,2.37,0,0,1,.35,0L4797.8,3290.55s5,10-.54,34.22c-6.19,32.13-14.4,38-14.4,38L1213.49,2661s-9.57-1.9-2.49-37.34c5.7-28.53,12.45-32.37,14.94-32.37m-2.49-17.42c-2.49,0-19.55,5.61-27.39,44.81-9,45.08,7.47,57.26,7.47,57.26.68.22,14,2.77,14.74,2.91l3556.94,696.57c1.06.21,11.7,2.38,12.63,2.22,5.65-.95,18.07-9.34,25.86-49.74,6.5-29.92.45-50.12-.94-50.47-5.23-1.3-16.94-4.14-17.47-4.24L1238.35,2576.66c-.27-.06-.53-.1-.8-.14C1236.67,2576.39,1223.45,2573.91,1223.45,2573.91Z" transform="translate(-1.15 -649.5)"/><path class="cls-7" d="M950.71,2644.64a2.64,2.64,0,0,0,2.72-2.34l0-.3a2.81,2.81,0,0,0-.62-2.07,2.77,2.77,0,0,0-1.91-1c-4.61-.41-8.86-3-12.65-7.59-10.38-12.67-15.17-38.44-12.19-65.65,4.18-38.19,22.92-69.06,40.36-67.53a2.82,2.82,0,0,0,3-2.54,2.79,2.79,0,0,0-2.53-3c-21.31-1.86-41.75,29.92-46.41,72.49-3.17,29.07,2,55.81,13.42,69.79,4.47,5.45,9.83,8.72,15.55,9.5a2.56,2.56,0,0,0,.88.25Z" transform="translate(-1.15 -649.5)"/><path class="cls-7" d="M721.93,2600a2.64,2.64,0,0,0,2.72-2.34l0-.3a2.78,2.78,0,0,0-2.52-3.08c-4.61-.42-8.86-3-12.65-7.59-10.38-12.67-15.17-38.44-12.19-65.65,4.18-38.19,22.81-69.07,40.36-67.53a2.79,2.79,0,0,0,.5-5.56c-21.27-1.9-41.75,29.92-46.41,72.49-3.18,29.07,2,55.81,13.42,69.79,4.47,5.45,9.83,8.72,15.55,9.5a2.56,2.56,0,0,0,.88.25Z" transform="translate(-1.15 -649.5)"/><path class="cls-7" d="M398.29,2533a2.63,2.63,0,0,0,2.72-2.33l0,1.7a2.78,2.78,0,0,0-2.53-3.08c-4.6-.42-8.86-5-12.64-9.59-10.38-12.67-15.17-38.44-12.19-65.65,4.08-37.25,21.76-67.59,39.05-67.59.44,0,.87,0,1.3.06a2.81,2.81,0,0,0,3-2.54,2.78,2.78,0,0,0-2.53-3c-21.24-1.87-41.74,29.92-46.4,72.49-3.18,29.06,2,55.81,13.42,69.79,4.47,5.45,9.83,8.72,15.55,9.5a2.5,2.5,0,0,0,.87.25Z" transform="translate(-1.15 -649.5)"/><path class="cls-7" d="M158.35,2488.39a2.63,2.63,0,0,0,2.72-2.33l0-.3a2.8,2.8,0,0,0-2.53-3.08c-4.6-.42-8.86-3-12.65-7.59-10.38-12.67-15.16-38.44-12.19-65.65,4.18-38.19,22.92-69,40.36-67.54a2.79,2.79,0,1,0,.5-5.55c-21.25-1.92-41.74,29.92-46.4,72.49-3.18,29.06,2,55.81,13.42,69.79,4.47,5.45,9.82,8.72,15.55,9.5a2.5,2.5,0,0,0,.87.25Z" transform="translate(-1.15 -649.5)"/><path class="cls-7" d="M5173.78,3480.86c20.58,0,40.21-30.87,45.29-72,3.58-29-1.19-55.82-12.46-70-4.39-5.52-9.71-8.86-15.41-9.72a2.6,2.6,0,0,0-.87-.27,2.68,2.68,0,0,0-3.08,2.28l0,.3a2.81,2.81,0,0,0,.59,2.09,2.75,2.75,0,0,0,1.9,1c4.6.48,8.82,3.09,12.54,7.77,10.22,12.81,14.64,38.64,11.29,65.8-4.71,38.14-23.61,68.73-41.29,67a2.79,2.79,0,0,0-.57,5.55C5172.37,3480.82,5173.07,3480.86,5173.78,3480.86Z" transform="translate(-1.15 -649.5)"/><path class="cls-7" d="M5408.14,3525.5c20.58,0,40.21-30.87,45.29-72,3.58-29-1.19-55.82-12.46-70-4.39-5.52-9.7-8.86-15.41-9.72a2.6,2.6,0,0,0-.87-.27,2.69,2.69,0,0,0-3.08,2.28l0,.3a2.8,2.8,0,0,0,.58,2.09,2.75,2.75,0,0,0,1.9,1c4.6.48,8.82,3.09,12.55,7.77,10.21,12.81,14.63,38.64,11.28,65.8-4.71,38.14-24.26,68.82-41.91,67.09-1.4-.17-2.28.84-2.44,2.38a2.8,2.8,0,0,0,2.5,3.06A20.94,20.94,0,0,0,5408.14,3525.5Z" transform="translate(-1.15 -649.5)"/><path class="cls-7" d="M5527.81,3550.31c20.58,0,37.72-33.36,42.8-74.45,3.58-29-1.19-55.82-12.46-70-4.39-5.52-9.7-8.86-15.41-9.72a2.6,2.6,0,0,0-.87-.27,2.69,2.69,0,0,0-3.07,2.28l0,.3a2.8,2.8,0,0,0,.58,2.09,2.77,2.77,0,0,0,1.9,1c4.6.48,8.82,3.09,12.55,7.77,10.21,12.81,14.63,38.64,11.28,65.8-4.71,38.14-21.08,71.19-38.8,69.47a2.79,2.79,0,0,0-.56,5.55A20.94,20.94,0,0,0,5527.81,3550.31Z" transform="translate(-1.15 -649.5)"/><path class="cls-7" d="M5866.3,3617.27c20.58,0,45.2-33.36,50.27-74.44,3.59-29-3.68-53.34-14.95-67.48-4.39-5.52-9.7-8.86-15.41-9.72a2.53,2.53,0,0,0-.87-.27,2.67,2.67,0,0,0-3.07,2.28l0,.3a2.85,2.85,0,0,0,.58,2.09,2.77,2.77,0,0,0,1.9,1c4.6.48,8.82,3.09,12.55,7.77,10.21,12.81,17.13,36.15,13.77,63.31-4.7,38.14-28.64,71.25-46.26,69.47a2.83,2.83,0,0,0-3.06,2.49,2.79,2.79,0,0,0,2.49,3.06C5864.9,3617.23,5865.6,3617.27,5866.3,3617.27Z" transform="translate(-1.15 -649.5)"/></g><g id="Hombres_Pals" data-name="Hombres Pals"><path class="cls-5" d="M5359.93,3516s64.85,6.8,86.46-53.58c0,0-.32,43.45-40.35,64Z" transform="translate(-1.15 -649.5)"/><path class="cls-5" d="M5239,2601.57s63.65-14.14,65-78.26c0,0,13.5,41.3-17.93,73.54Z" transform="translate(-1.15 -649.5)"/><path class="cls-5" d="M5009,2649.57s63.65-14.14,65-78.26c0,0,13.5,41.3-17.93,73.54Z" transform="translate(-1.15 -649.5)"/><path class="cls-5" d="M5563,2539.57s63.65-14.14,65-78.26c0,0,13.5,41.3-17.93,73.54Z" transform="translate(-1.15 -649.5)"/><path class="cls-5" d="M5822.93,3607s64.85,6.8,86.46-53.58c0,0-.32,43.45-40.35,64Z" transform="translate(-1.15 -649.5)"/><path class="cls-5" d="M5884.18,3619.58s77.39,3,98.27-70.43c0,0,3,51.65-42.8,79.24Z" transform="translate(-1.15 -649.5)"/><path class="cls-5" d="M454,2541s-78.56-20.56-81-87c0,0-12.89,43.57,21.5,77.46Z" transform="translate(-1.15 -649.5)"/><path class="cls-5" d="M1005,2650s-78.56-20.56-81-87c0,0-12.89,43.57,21.5,77.46Z" transform="translate(-1.15 -649.5)"/><path class="cls-5" d="M861,3475s-67.15-7-74.37-73.07c0,0-9.72,44.39,27,75.71Z" transform="translate(-1.15 -649.5)"/><path class="cls-5" d="M632,3521s-73.77-6.91-81-73c0,0-3.09,44.32,33.66,75.64Z" transform="translate(-1.15 -649.5)"/><path class="cls-5" d="M514,3547s-73.77-6.91-81-73c0,0-3.09,44.32,33.66,75.64Z" transform="translate(-1.15 -649.5)"/><path class="cls-5" d="M173.57,3610.62s-74-2.82-84.91-68.41c0,0-.63,44.42,37.79,73.66Z" transform="translate(-1.15 -649.5)"/><path class="cls-5" d="M91,3625s-47,7-73-84c0,0-2,63,43.45,92.87Z" transform="translate(-1.15 -649.5)"/><path class="cls-5" d="M1218,2601s-5.82,48,7,65l-17.66-.46L1203,2632l14-44Z" transform="translate(-1.15 -649.5)"/><path class="cls-5" d="M1070.92,2546.72S1027,2605,1036,2662l12.09,6.84L1056,2590" transform="translate(-1.15 -649.5)"/><polygon class="cls-5" points="703.42 1945.01 1053.31 1973.15 1058.09 2019.87 703.42 1945.01"/><polygon class="cls-5" points="1191.85 1993.5 1191.35 2075.09 1216.31 2059.16 1233.3 2028.89 1206.19 2016.04 1191.85 1993.5"/><path class="cls-5" d="M4801.58,3305.08s-13.12,46.5-31.52,57.27l16.46,6.39,16.95-29.27,4-46Z" transform="translate(-1.15 -649.5)"/><path class="cls-5" d="M4958.22,3311.71s18.05,70.71-12.24,119.83l-13.79,1.65,23.1-75.79" transform="translate(-1.15 -649.5)"/><polygon class="cls-5" points="5276.66 2847.57 4942.98 2738.61 4920.55 2779.88 5276.66 2847.57"/><polygon class="cls-5" points="4812.85 2674.5 4798.85 2759.5 4770.85 2775.5 4759.42 2755.12 4755.41 2720.65 4785.38 2719.24 4812.85 2674.5"/><path class="cls-5" d="M4783,2603s4.82,49.18-8,66.22l17.66-.46,4.34-33.54-14-44Z" transform="translate(-1.15 -649.5)"/><path class="cls-5" d="M4929.08,2549.94s43.92,58.28,34.92,115.28l-12.09,6.84-7.91-78.84" transform="translate(-1.15 -649.5)"/><polygon class="cls-5" points="5294.28 1948.22 4944.85 1989.5 4939.61 2023.09 5294.28 1948.22"/><polygon class="cls-5" points="4804.85 2001.5 4806.35 2078.3 4781.4 2062.38 4764.41 2032.11 4791.51 2019.26 4804.85 2001.5"/><path class="cls-5" d="M1198,3306.86s13.12,46.5,31.52,57.27l-16.47,6.38-16.94-29.27-4.05-46Z" transform="translate(-1.15 -649.5)"/><path class="cls-5" d="M1041.4,3313.49s-18.05,70.71,12.24,119.83l13.78,1.65-23.09-75.79" transform="translate(-1.15 -649.5)"/><polygon class="cls-5" points="720.66 2849.34 1054.34 2740.39 1076.77 2781.66 720.66 2849.34"/><polygon class="cls-5" points="1184.47 2676.28 1198.47 2761.28 1226.47 2777.28 1237.9 2756.9 1241.9 2722.43 1211.94 2721.01 1184.47 2676.28"/><g id="Pals-2" data-name="Pals" class="cls-13"><path class="cls-7" d="M3943.45,3207.43c4.24-36,5.09-60.58,5.55-94.43l-677.93-143.41,663.51-129.94c-9.39-33.4-32.58-86.65-32.58-86.65l-902,163.5L2039,2740c-13.9,32.44-18.34,55.28-28.26,88.94l718.19,140.65L1974,3130c.24,8.62.72,4.67,1.19,13.34q2.1,39,7.25,78.61L3000,3022.67Zm-1896-431.26q3.57-9.6,7.31-19h0Q2051,2766.56,2047.4,2776.17Zm-8.2,23q1.77-5.22,3.6-10.37Q2041,2793.95,2039.2,2799.17Z" transform="translate(-1.15 -649.5)"/></g></g><g id="Càntir"><path class="cls-14" d="M4091.62,2326.2c-20.15-36-30.66-81.32-106-145.08-72.54-61.38-128.94-83.87-177.55-102.54-9.81-3.77-21.2-2.9-29.5,3.54a29.09,29.09,0,0,0-6.3,39.34l11.28,16.66c4.95,7.3.37,11.33-3.94,19-4.52,8.06-24.24,6.8-32.93,6.11l-14.54-1.15a68.12,68.12,0,0,0-31.79,4.66,66.38,66.38,0,0,0-40.95,64l2.78,69.23c.79,19.74-13.11,27.59-28.14,40.41l-34.51,29.42c-29.35,15.91-66.74,16.13-98.65,17.24a68.18,68.18,0,0,1-40.77-11.73,553.86,553.86,0,0,0-51.36-31,29,29,0,0,1-8.58-44.43c94.17-111.39,153.34-256.87,153.34-397.59,0-285.44-231.4-394.08-516.84-394.08S2519.8,1616.86,2519.8,1902.3c0,131.88,46.9,267.93,125.46,376.2a27.57,27.57,0,0,1-10.73,41.17c-12.6,5.92-66.26,45.59-129.44,31.56-49.17-10.91-85.54-14.27-112.55-37.78-50.32-43.8-30-92.49-30-92.49,53.23-127.84-35.82-110.27-121.84-127.45-80.25-16-148.93-56.12-185.21-79.72a35.22,35.22,0,0,0-37.14-.81l-17,12.18-1.32,1-12.77,10.09a35.46,35.46,0,0,0-11.13,35.72c10.86,42,26.64,116.81,16.34,197.89-13.56,106.71-40.63,160.92,85.62,151.94,0,0,47,1.84,72.56,63.47,25,60.27,15.9,159,10.32,220.8-119.28,229.47-163.51,575.52,118.82,1038.23C2438,4008,2491,4104,2491.32,4244.91c0,0-52.74,63.28-10.55,116,0,0,104.86,131.85,500.41,131.85s489.87-131.85,489.87-131.85c42.19-52.74-10.55-116-10.55-116-10.58-138.68,53.35-237,211.57-500.65,256.9-421,243.41-745.47,149-973.39l-15.24-72.25c-8.53-40.44-15.82-104.91,9.15-137.84l27.4-36.13a64.36,64.36,0,0,1,50.19-25.47l56.42-6.74c15.53-2.58,40.63-10.47,58.9-26.74,11.79-10.5,16.74-33.48,12.91-48.58l-1.75-18.38c-.58-4.23,5.56-43.62,17.11-36.73l18.11,10.81a29.11,29.11,0,0,0,39.89-10C4099.69,2353.66,4096.83,2335.5,4091.62,2326.2Zm-1055-729.08c237.4,0,429.85,69.69,429.85,307.09S3250,2266.35,3012.56,2266.35s-405.77-124.74-405.77-362.14S2799.25,1597.12,3036.65,1597.12Z" transform="translate(-1.15 -649.5)"/><path class="cls-15" d="M2483,4249c2.37,6.52-25.55,58.92-26,64-13,146,331.74,176,454,187,29.39,2.64,64.78,6,118,2,25.62-1.91,171.2-16.46,218-27,48.69-11,197-52,235-113,14.93-24,22.87-40.45,11-31-5,4-16,21-33,35-.19.16-53,41-80.36,52.67-54.49,23.25-87.64,41.33-199.56,55.74-173.54,22.33-293,10.16-304.08,9.08C2799,4476,2599,4456,2498,4365c-27-20-18-79,22-53,0,0,62,64,294,80s419,4,533-38,123-102,123-102l-4.1-3.46-17.73,34.91L3373,4332l-95,27-161,25-221,5-166-15-126-36-59-27s-42.33-72.65-59.24-149.87C2482,4144.06,2484,4237,2484,4237" transform="translate(-1.15 -649.5)"/><path class="cls-15" d="M2046,2425c2,0,80,10,210.74-80.24,0,0-171.74,186.24,12.26,329.24l-23,9-87.64,14s5.43-109.92,6.54-111.94-14.29-99.79-14.29-99.79L2115,2452l-43-17" transform="translate(-1.15 -649.5)"/><path class="cls-15" d="M4036.19,2362,3962,2291s60.66,65.23,58.83,126.12Z" transform="translate(-1.15 -649.5)"/><path class="cls-15" d="M3968.77,2487.37s-96.16,19.37-186-31c0,0,39,68,7.1,177.83-7.8,27.6-72,39.55-119.45,17.18,0,0,65.34,53.36,82.55,72.62,41.08,46,122,222,122,222l-10-75-64-219.16,12.78-58.58,10.33-40,18.28-28.58,39.26-18.27Z" transform="translate(-1.15 -649.5)"/><path class="cls-15" d="M2271,2680s-126,50-157,123l41.31-97.26Z" transform="translate(-1.15 -649.5)"/><path class="cls-15" d="M2637.87,2277.66S2707,2316,2693,2325s-48.51-6.36-83.26,8.82l38.08-26.15Z" transform="translate(-1.15 -649.5)"/><path class="cls-15" d="M3404.75,2298.66s-69.13,38.34-55.13,47.34,48.51-6.36,83.25,8.82l-38.08-26.15Z" transform="translate(-1.15 -649.5)"/><path d="M2149.66,2713.73c-1.47-1.06,5.74-6.39,5.65-8-.17-2.9,1.42-6.15,3.05-8.78.71-1.15.93-2.9,2.71-3.2,85.57-8.56,230.78-74.16,309-173.86,31.15-39.69,45.69-85.53,56-134,1.68-8,3-25.83-2.75-34.39.94-7,9.3-2.86,10.7-6s3.38-3.37,6.62,1.67c1.41,2.2,5.92-3,9.13-3.25.78-.06-11.69,5.49-12.19,7.63,8.55,8.56,4.56,24,2.08,36.28-5.67,28-11.59,55.67-24.11,82.08-32.57,68.7-83.82,120.34-146.89,160.94-52.45,33.77-109.75,56.86-169.75,73.22C2186.93,2707.26,2163.32,2711.74,2149.66,2713.73Z" transform="translate(-1.15 -649.5)"/><path d="M3461.76,2388.55c-.25-8.89,5.1-18.35,5.71-20,1.11-3-5.71,5.7-1,.59,2.84,2.89,17.18,4.55,18.09,8,1.64,6.09-8.55,5.71-8.29,20,.49,26.95,14.58,50.47,28.16,73.17,70.51,117.88,173.36,198.26,296.45,255,3.57,1.65,12.93,4.37,16.09,6.5,2.5,1.68,3.72,5.27,5.5,8-2.59,1.49-5.21,4.26-7.76,4.19-4.13-.1-13.38-4.1-17.25-5.79-63.41-27.58-120.49-65.28-174.15-108.6-58.4-47.15-103.15-105.43-139.81-170.25C3470.28,2436,3461.91,2416,3461.76,2388.55Z" transform="translate(-1.15 -649.5)"/><path d="M2452.89,4055.84c67.62,27,136.41,46.83,207.89,56.3,30.66,4.07,61.6,6.13,92.41,9.09,2.44.24,5.46-.4,7.21.82a16.64,16.64,0,0,1,2.54,2.22c3.07,3.22,1.81,8.83-2.47,10a4.22,4.22,0,0,1-1.4.16c-25.39-1.69-50.81-3.39-76.09-6.18-71.39-7.9-140.51-25.48-207.9-50.05C2459,4072.36,2459,4072.18,2452.89,4055.84Z" transform="translate(-1.15 -649.5)"/><path d="M2431.24,4005.57c10,4.28,18,7.73,26.05,11.16,76.09,32.53,155.53,52.28,237.52,62.27,2.42.3,5.33.14,7.08,1.44a9.48,9.48,0,0,1,3.61,6.53c0,1.44-3.15,4.05-5,4.14a101.94,101.94,0,0,1-18.32-.66c-81.22-11-159.85-31.38-235.24-63.93C2437.8,4022.57,2436,4014.74,2431.24,4005.57Z" transform="translate(-1.15 -649.5)"/><path d="M2400.14,3954.41c19.74,8.13,39.31,16.73,59.27,24.31,59.43,22.57,120.18,40.66,182.86,51.85,1.2.21,2.42.38,3.61.7,4.55,1.2,10.18,2.63,8,8.53-.87,2.36-7.2,4.54-10.45,3.88-24.61-5-49.23-10.1-73.57-16.25A1058.78,1058.78,0,0,1,2426,3979.55C2413.7,3974.46,2403.84,3968.14,2400.14,3954.41Z" transform="translate(-1.15 -649.5)"/><path d="M2371.85,3902.74c16.68,6.78,43.93,19,60.66,25.62,52.82,21,106.89,38,162.61,49.47,1.2.25,2.79.18,3.51.92s1.39,1.5,2.06,2.27c3,3.44,1.24,9.11-3.25,9.89a4.46,4.46,0,0,1-1.5,0c-12.68-2.17-25.24-5.13-37.73-8.23a1005.37,1005.37,0,0,1-160-54.74c-14-5.31-12.16-11.41-18.16-17.3C2380.88,3909.78,2371.06,3903.62,2371.85,3902.74Z" transform="translate(-1.15 -649.5)"/><path d="M2332,3838c25.77,9.5,61,24.62,87,33.37,36.29,12.21,72.93,23.41,109.42,35,1.17.37,2.82.29,3.46,1.07s1.2,1.52,1.76,2.31c2.57,3.59.69,8.95-3.66,9.71a3.45,3.45,0,0,1-1.36,0,281.76,281.76,0,0,1-33.74-9c-46.36-15.94-104.47-38.08-150.45-55.08C2337.82,3853,2331.28,3838.86,2332,3838Z" transform="translate(-1.15 -649.5)"/><path d="M2469.69,4098.36c6.69,2.62,13.16,5.12,19.6,7.69,49.79,19.81,101.33,33.17,154.1,42.13,5.58.95,14.64.18,13.21,9-1,5.5-9.91,4.36-15.15,3.52a775.2,775.2,0,0,1-157.74-42.74C2474.32,4114.27,2469.18,4109.32,2469.69,4098.36Z" transform="translate(-1.15 -649.5)"/><path d="M2292.18,3770.79c16.14,7.3,39.34,19.94,55.8,26.43,31.92,12.58,64.18,24.33,96.3,36.4,1.14.43,2.76.31,3.46,1.08l.31.35a7.38,7.38,0,0,1-3.36,11.93l-.1,0c-1.27.36-3-.53-4.4-1.09-41.63-16.36-83.45-32.26-124.66-49.59-7.39-3.11-12.29-12.16-18.33-18.47C2298,3777.06,2291.41,3771.59,2292.18,3770.79Z" transform="translate(-1.15 -649.5)"/><path d="M2257.93,3708.47q58,25.08,115.43,49.94c2,.84,4.38,1.53,5.54,3.08a10.13,10.13,0,0,1,.83,1.29,6.45,6.45,0,0,1-3.95,9.37,3.53,3.53,0,0,1-1.88,0c-7.26-2.23-14.17-5.67-21.18-8.71-25-10.82-49.77-22-74.92-32.37C2259.81,3723.49,2262.2,3717.79,2257.93,3708.47Z" transform="translate(-1.15 -649.5)"/><path d="M2477.82,4141.1c35.64,18.28,73,28.82,111,37.64,5.67,1.32,16.17,2,12.95,10.64-1.92,5.11-10.89,2.65-16.43,1.45-33.63-7.27-66.54-16.83-98.13-30.79C2478.77,4156.31,2475.28,4151.24,2477.82,4141.1Z" transform="translate(-1.15 -649.5)"/><path d="M2157.31,2687.79c.36-5.22.28-12.4.42-14.34,11.13.77,37.69-7.17,55.54-11.75,12.24-3.13,23.49-10,35.47-14.5,2.9-1.09,8.43-1.73,10.38,1.21,1.69,2.55-.51,7.7-2.53,8.64C2226.68,2670.94,2181,2688.05,2157.31,2687.79Z" transform="translate(-1.15 -649.5)"/><path d="M2214.68,3628.32c12.12,6.18,24.06,12.77,36.41,18.45,15.86,7.3,32.17,13.64,48,21a4.87,4.87,0,0,1,.82.48c4.32,3,2.72,10.1-2.43,11.25a3.84,3.84,0,0,1-2.34-.07c-22.91-9.52-45.92-19-67.92-30.37-6.3-3.25-9.59-12.31-14.18-18.87Z" transform="translate(-1.15 -649.5)"/><path d="M3810.94,2710.74a194.23,194.23,0,0,1-76.8-39.2c-2.16-1.79-4.73-7.58-2.39-10.3s8.17-1,10.55.8a231,231,0,0,0,62.82,33.85c3.77,1.33,5.54,8.39,8.24,12.8Z" transform="translate(-1.15 -649.5)"/><path d="M2489.29,4191.39c18.51,21.51,37.05,30.33,59.93,36.44,2.66,1.49,6,2.59,7.66,4.85a7.17,7.17,0,0,1,.84,1.48c1.75,4-.81,8.83-5.18,9.12a3.31,3.31,0,0,1-1.81-.32c-24.9-6.11-43.44-14.93-63.4-36.67-3.09-1.93-2.7-9.43-3.92-14.36C2484.45,4191.49,2484.1,4188.41,2489.29,4191.39Z" transform="translate(-1.15 -649.5)"/><path d="M2174.25,3549.47c19.65,9.82,38,18.71,56,28.26a4.9,4.9,0,0,1,1.38,1.13c3.48,3.94.68,10.56-4.58,10.43a3.8,3.8,0,0,1-1.4-.28c-13.68-6.05-27.59-12-40.06-20.11C2180.32,3565.49,2178.39,3556.94,2174.25,3549.47Z" transform="translate(-1.15 -649.5)"/><path d="M3423.33,2270.72c2.29,10.93-8.09,38.53-36.84,53.69-9.28,4.62-18.11,10.22-27.6,14.33-3,1.32-8.37,1.32-11-1.49-3.06-5.75,1.27-7.91,5.53-10.28C3392.13,2304.4,3394.6,2304.11,3423.33,2270.72Z" transform="translate(-1.15 -649.5)"/><path d="M2160.51,2663.69v-13.13c6.27.41,23.38-2.44,44-10.39a5.88,5.88,0,0,1,1.83-.06c5.61.61,8,8.45,3.24,11.56a5.49,5.49,0,0,1-1.05.48C2189.59,2659.53,2178.19,2662.38,2160.51,2663.69Z" transform="translate(-1.15 -649.5)"/><path d="M3805.06,2684.09c-15-8.18-29.34-15.49-43-23.88-2.77-1.69-5.33-8.63-4-11,2.88-5.35,7.52-2.1,11.63.53,7.72,4.92,22.75,10.48,31.26,13.2C3810.83,2666.1,3806.41,2672.05,3805.06,2684.09Z" transform="translate(-1.15 -649.5)"/><path d="M2620.31,2243.08c2.62,1.17,20,28.52,28.51,35.83s18.46,13.1,27,20.4a5.82,5.82,0,0,1,1,1.11c3.12,4.57-1.59,11.16-6.9,9.59a4.62,4.62,0,0,1-1.11-.49,162.24,162.24,0,0,1-25.16-18.22c-3.33-3-4-9-5.81-13.64C2638.91,2276.88,2619.26,2243.86,2620.31,2243.08Z" transform="translate(-1.15 -649.5)"/><path d="M3384.75,2345.77c-11.41,5.7-20-2.86-9.34-9.19a214.44,214.44,0,0,1,26.42-13.25c1.77-.69.84,4.1,1.86,6s.43,6.56-1,7.49C3395.45,2341.3,3387,2344.67,3384.75,2345.77Z" transform="translate(-1.15 -649.5)"/><path d="M2635.46,2307.62c-1.21-1.39-2.39-5.35-1.48-6.47,1.66-2,5.2-4.28,7.35-3.79a29.8,29.8,0,0,1,12.1,6c2,1.67,3.42,6,2.69,8.32C2655.49,2313.72,2648.83,2323,2635.46,2307.62Z" transform="translate(-1.15 -649.5)"/><path d="M2162.42,2641.41v-13.1c4.8-1,9.77-2.71,14.79-2.9,3.86.53,5.33,2.7,5.59,5,.33,3-.9,5.6-2.35,6.57C2176.6,2639.59,2169,2639.92,2162.42,2641.41Z" transform="translate(-1.15 -649.5)"/><path d="M3801,2651.84c-4.62-1.81-8.79-2.52-11.67-4.83-2.64-2.12-6-6.59-5.41-9.19.4-1.69,4.64-4.19,6-3.62a29,29,0,0,1,10.86,7.56C3802.24,2643.55,3801,2647.58,3801,2651.84Z" transform="translate(-1.15 -649.5)"/><path d="M2149.45,3484.44c3.9,3.45,8.25,6.54,11.41,10.57a2.62,2.62,0,0,1,.38,1.85c-.28,3.72-4.94,5.76-7.46,3a3,3,0,0,1-.43-.58c-2.41-4.26-3.76-9.11-5.54-13.72Z" transform="translate(-1.15 -649.5)"/><path d="M2162.72,2618.66c.53-3.72,1.07-7.45,2-14.16,3.12,3.34,7.92-2.2,10.08,5.38,2.57,9.06-7.82,7.64-10.21,10.38Z" transform="translate(-1.15 -649.5)"/><path class="cls-7" d="M1980.08,2057.25c2.67,3.77,17.07-1.82,32.18-12.49s28.83-26.1,26.16-29.87-20.72,5.53-35.82,16.2S1977.42,2053.47,1980.08,2057.25Z" transform="translate(-1.15 -649.5)"/><path class="cls-7" d="M2055,2431.31l-.31-5.56c1.93-.12,195.16-9.31,314.66-220.92l-5.18,18.62C2253.11,2417.82,2057,2431.2,2055,2431.31Z" transform="translate(-1.15 -649.5)"/><path class="cls-7" d="M3881.67,2506.38c-191.71-55.07-227.59-215.14-228-216.73l5.41-1.37c.4,1.56,36.57,157.32,224.37,212.81Z" transform="translate(-1.15 -649.5)"/><path class="cls-7" d="M4077.62,2330.88c-6.15,7-64.37-63-125.22-116.27s-137.61-111.07-131.46-118.09,92.9,39.36,153.74,92.67S4083.77,2323.86,4077.62,2330.88Z" transform="translate(-1.15 -649.5)"/><path id="Traç" class="cls-7" d="M3036.65,1508.22c285.44,0,516.84,108.64,516.84,394.08,0,140.72-59.17,286.2-153.34,397.59a29,29,0,0,0,8.58,44.43,553.86,553.86,0,0,1,51.36,31,68.17,68.17,0,0,0,38.37,11.77c.8,0,1.6,0,2.4,0,2.63-.09,31.93-.52,48.14-2,8.05-.75,35.42-5,50.51-15.21l34.51-29.42c15-12.82,28.93-20.67,28.14-40.4l-2.78-69.24a66,66,0,0,1,66.53-68.87q3.11,0,6.21.25l14.54,1.15c2.85.23,6.89.52,11.18.52,8.81,0,18.72-1.21,21.75-6.63,4.31-7.7,8.89-11.73,3.94-19l-11.28-16.65a29.1,29.1,0,0,1,6.3-39.35,28.46,28.46,0,0,1,17.56-5.78,33.48,33.48,0,0,1,11.94,2.24c48.61,18.67,105,41.16,177.55,102.54,75.36,63.76,85.87,109.09,106,145.08,5.21,9.3,8.07,27.46,2.57,36.59a29.1,29.1,0,0,1-39.89,10L4036.19,2362a5.23,5.23,0,0,0-2.67-.81c-9.82,0-15,33.65-14.44,37.54l1.75,18.38c3.83,15.1-1.12,38.08-12.91,48.58-18.27,16.27-43.37,24.16-58.9,26.74l-56.42,6.74a64.39,64.39,0,0,0-50.19,25.47l-27.4,36.13c-25,32.93-17.68,97.4-9.15,137.84l15.24,72.26c94.38,227.91,107.87,552.35-149,973.38-158.22,263.7-222.15,362-211.57,500.65,0,0,52.74,63.28,10.55,116,0,0-94.32,131.85-489.87,131.85s-500.41-131.85-500.41-131.85c-42.19-52.74,7.23-97.93,7.23-97.93,15.57-177.74-50-255-208.25-518.74-282.33-462.71-238.1-808.76-118.82-1038.23,5.58-61.77,14.65-160.53-10.32-220.8-25.53-61.63-72.55-63.47-72.55-63.47-9,.65-17.27,1-24.79,1-97.65,0-73.43-53.82-60.84-152.9,10.3-81.08-5.48-155.9-16.33-197.89a35.43,35.43,0,0,1,11.12-35.72l12.77-10.09,1.32-1,17-12.18a35.21,35.21,0,0,1,37.14.81c36.28,23.6,105,63.69,185.21,79.72,86,17.18,175.07-.39,121.84,127.45,0,0-20.28,48.69,30,92.49,27,23.51,63.38,26.87,112.55,37.78a125.85,125.85,0,0,0,27.43,3c50.79,0,91.28-29.5,102-34.54a27.57,27.57,0,0,0,10.73-41.17c-78.56-108.27-125.46-244.32-125.46-376.2,0-285.44,231.4-394.08,516.85-394.08m-24.09,758.13c237.4,0,453.94-124.73,453.94-362.14s-192.45-307.09-429.85-307.09-429.86,69.69-429.86,307.09,168.37,362.14,405.77,362.14m24.09-774.87c-154.8,0-284.4,32.1-374.8,92.84-105.37,70.79-158.79,177.78-158.79,318,0,132.66,46.89,273.36,128.65,386a10.61,10.61,0,0,1,1.72,9,10.88,10.88,0,0,1-6,7.23c-2.45,1.16-5.24,2.78-9.09,5-15.59,9.06-48,27.93-85.79,27.93a109.79,109.79,0,0,1-23.81-2.58c-9.16-2-17.75-3.78-26.07-5.47-35-7.14-60.38-12.29-79.11-28.6-40.06-34.87-26.13-72-25.51-73.58,19.54-46.93,22.42-79.65,9-102.82-17.52-30.26-57.17-35.31-99.14-40.67-14.42-1.83-29.33-3.74-44-6.66-57.1-11.41-119.12-38.15-179.35-77.33a51.94,51.94,0,0,0-54.77-1.2l-.64.38-.6.43-17,12.17-1.41,1-.28.2-.26.21-12.77,10.09-.3.24-.29.25a52,52,0,0,0-16.36,52.57c17.92,69.3,23.28,133.76,15.94,191.58-1.75,13.71-3.69,26.38-5.57,38.64-7.55,49.23-13,84.79,7.86,109.1,14.06,16.39,37.94,24,75.15,24,7.52,0,15.84-.3,24.73-.91,4.95.56,37.64,6,57.15,53.09,23,55.41,14.68,151.12,9.41,209.62-69.15,134.27-99.94,281.39-91.54,437.32,10.44,193.77,81.91,400.48,212.44,614.4,31.48,52.47,59.35,96.72,83.93,135.76C2445.27,4041,2488.59,4119.6,2478,4253c-20.78,27.64-48.33,70.86-10.31,118.39,4.46,5.6,114.46,138.13,513.49,138.13,392.17,0,495.63-128.3,503.16-138.4,37.66-47.42,13.22-104.9-7.5-132.52-7.76-124.05,50-220.11,186.85-447.88q11-18.34,22.73-37.85c119.61-196,189.79-386.48,208.54-566,15.52-148.57-3.93-290.2-57.8-421l-14.92-70.75c-12-56.93-9.73-103.38,6.11-124.26l27.4-36.14a47.36,47.36,0,0,1,37.14-18.84l.85,0,.85-.1,56.42-6.74.38,0,.37-.07c9.45-1.56,42.21-8.41,67.29-30.75,17.23-15.35,22.75-44.12,18.33-63.82l-1.58-16.69a86.24,86.24,0,0,1,2.75-14.77l7.17,4.28a45.84,45.84,0,0,0,62.8-15.77c9.77-16.19,4.41-41.44-2.29-53.41-3.81-6.8-7.37-14.21-11.14-22.05-15.94-33.15-35.78-74.41-98.68-127.63-76.49-64.73-137.68-88.23-182.36-105.39a49.88,49.88,0,0,0-17.94-3.35,45,45,0,0,0-27.82,9.28,46,46,0,0,0-9.9,62l9.25,13.67c-.36.58-.73,1.18-1.1,1.8a41,41,0,0,1-8.7.72c-3.56,0-7-.24-9.85-.46l-14.54-1.16c-2.52-.2-5-.3-7.54-.3a82.4,82.4,0,0,0-32,6.21c-32.51,13.63-52.6,45.06-51.2,80.07l2.77,69.24c.31,7.67-2.87,11.12-15.55,21.43-2.19,1.78-4.44,3.62-6.72,5.56L3590,2355.86c-25.76,13.51-58,14.66-58,14.66s-33.08,4.48-62.59-9.06a569.19,569.19,0,0,0-52.95-31.94,12.28,12.28,0,0,1-3.6-18.82c100-118.25,157.29-267.1,157.29-408.4,0-140.2-53.42-247.19-158.78-318-90.41-60.74-220-92.84-374.8-92.84Zm-24.09,758.13c-115.94,0-213.14-30.46-281.08-88.07-70.62-59.89-107.95-148.87-107.95-257.33,0-105.58,38.55-180.24,117.84-228.25,68.06-41.2,167.4-62.1,295.28-62.1s227.22,20.9,295.28,62.1c79.29,48,117.83,122.67,117.83,228.25s-45.31,194.3-131,256.55c-78.9,57.29-187.63,88.85-306.16,88.85Z" transform="translate(-1.15 -649.5)"/><path class="cls-7" d="M2972.31,4393.87c-473.24,0-492.5-147.47-493.09-153.76L2489,4232l1.34,7c.15,1.44,21.11,143.68,482,143.68,472.58,0,489.77-141.87,489.89-143.3l11.14.78C3472.93,4246.46,3457.7,4393.87,2972.31,4393.87Z" transform="translate(-1.15 -649.5)"/><g id="Lleo"><path class="cls-7" d="M3636.68,3513.2c.36-19.57-15.35-7.68-11.52-34.55a19.6,19.6,0,0,0-1-9.84c.11-7.74-3.24-15.8-6.1-22.57-1-2.41-2-4.68-2.6-6.58a28.3,28.3,0,0,1-1.82-10.42,17.05,17.05,0,0,0-2.12-9c-1.59-3.17-3.78-4.13-5.34-4.39-4.49-.74-8.77,3.42-9.23,3.87-.1.09-9.72,8.39-43.9-.77l-37.61-14.59a246,246,0,0,1-57.1-41.65l-18.16-21c-.5-.76-1.05-1.54-1.46-2.22-8.9-14.85-18-18.74-22.21-19.76l0,0c2.65-11.2-5.19-15.38-5.22-15.38-10.87-7.25-14.53-18-18.33-29.42-.13-20.82-12.31-32.52-23.07-42.86-1.49-1.42-3-2.83-4.36-4.24a27.49,27.49,0,0,1-2.54-2.92L3360,3219a8.68,8.68,0,0,1,1.78-7.84c14.71-18.39,15.7-62.79,15.77-69.5,7.31-7.61,16.27-22.55,26.6-39.78,12.16-20.28,25.94-43.28,42.07-63.44,27.23-34,63.92-21.35,96.31-10.15,3.07,1.06,6.09,2.1,9.06,3.09,8.43,2.81,14.56,3,18.75.44,5.4-3.26,6.55-10.24,7.68-17,1.3-7.85,2.53-15.27,9.43-18,9-3.6,10.44-6.65,11.48-10.55.83-3.11,1.76-6.64,15.44-12.5,6.43-2.76,9.41-5.86,9.08-9.48-.84-9.42-27.17-16-32.44-17.18l-.67-.15-.61.3c-.08,0-8.06,3.78-37.77,7.49-13,1.62-20.14-1-29.19-4.24-11.67-4.22-26.22-9.45-59-7.29-57.95,3.87-77.51,37.92-78.32,39.37s-19.25,34.67-23.07,42.3c-2.41,4.82-23.92,21.76-40.45,34l-4.18,2.39a221.6,221.6,0,0,1-43.43-54.64l-4.26-9.68s-.09-.37-.1-.39c-.56-18.55-7.72-35.73-13-48.39-3.25-7.73-6.05-14.41-6.05-18.39,0-9.93,10.66-40,12.91-46.19,42-4.4,50.29-35.55,50.37-35.87l.8-3.22-3.19.91a59.92,59.92,0,0,1-9.37,1.5c-10.19-.59-26.19-2.19-38.11-6.52-1-.49-2.07-1.06-3.11-1.61-6.59-4.3-7.65-15.67-7.65-15.67s6.13-10.36,9.58-12.09c25.92-13,65.24-2.68,76.28.57,10.82,3.19,26.19,7,26.19,7l.44-7.49a35.76,35.76,0,0,0-9.65-24.8c-8.71-9.24-23-18.85-41-18.85-16.39,0-45.28,2.85-58.72-1.81-14.23-4.93-13.48-5.66-28.42-15.62-7.43-5-12.7-11.81-21.06-15.53-31.59-14-70.57,6.46-82.54,13.58-13.74-9.11-41.4-14.08-61.82-14.08-7,0-15.87-9.67-18.42-13.05l-7-9.27-3.18,11.15c-3.15,11-4.09,37.71,14.91,45.31a32.91,32.91,0,0,1,18.4,19.06c-12,10.79-11.07,42-8.25,86.64.82,12.87,1.58,25,1.58,34.81,0,8.59-2.8,17.92-7,27.14-28.15-77.93-111.23-108.61-190.63-165.32-80.6-57.58-126.66-122.83-145.85-145.86s-30.71-42.22-57.58-53.74-26.87,15.36-26.87,26.87c-19.19,7.68-3.83,38.39,3.84,46.06-3.84,38.39,34.55,76.77,61.41,99.8s23,34.54,11.52,38.38-11.52,26.87,11.51,46.06,88.29,122.83,88.29,122.83-126.67-26.87-211.11-38.39-284-99.79-284-99.79-72.92-26.87-92.11-7.68c-12,12-4.54,26.92,2.75,36.48a42.59,42.59,0,0,1,8.76,25.86V2878c0,10.33,20.86,29.35,34.5,40.69a45.16,45.16,0,0,1,14.12,20c6.92,20.41,24.31,33.57,47.34,46.73,26.87,15.35,330.09,153.53,330.09,153.53l1.64,3.28a80.7,80.7,0,0,0,42.19,38.82l29.1,11.64c57.57,23,145.85,34.54,172.72,38.38,6.24.89,13.71,4.7,21.66,10-5.71,6.3-20.28,19-54.28,34.11-34.55,15.36-161.21-34.54-230.3-23s-103.63,72.93-92.12,142c10.73,64.36,76.77,138.18,168.89,161.21,54.32,13.58,106,22.93,137.05,28,3.92.73,8,1.49,12,2.27.62,9.2.62,15.76.62,15.76s-42.14,8.43-46.94,47.35c-3.38,27.36,17.55,51.71,45,54.19,41.95,3.79,70.54,31.84,74.86,40.48,3.84,7.67-3.84,11.51-15.36,15.35s-34.54,0-34.54,7.68,15.35,11.51,26.87,15.35,7.67,23,7.67,23-23,11.51,46.06,19.19,107.48-53.74,96-88.28-111.31-49.9-111.31-80.6c0-12,11.13-26.32,25.6-40,11,3.71,22,7.68,32.76,12.08a236.4,236.4,0,0,1,41.66,22.33l51.59,34.39-.3-.4c34.62,24.1,70.47,51,80.91,65.65,19.19,26.87-2.07,19.69-26.87,30.71-34.55,15.35-92.12,138.18,172.72,96,0,0-72.92-15.36-26.87-53.74,20.85-17.37,33-33.72,23-53.73C3316.18,3737.74,3254.77,3707,3155,3661c-91.27-42.12-137.57-65-144.81-68.57,15.35-11.66,29.57-21.08,35.42-25.47,15.35-11.51,18.37-29.49,26.87-30.7,13.43-1.92,23,23,23,23-7.68,3.84,0,23,0,23s-3.84,23,19.19,38.38,72.93,0,92.12,0,11.51,11.52,30.71,7.68,92.12-3.84,107.47,0,38.38,42.22,42.22,38.38,3.84-26.87,3.84-26.87,19.19,11.52,26.87,11.52,3.83-15.36,3.83-15.36,15.36,7.68,23,3.84-26.86-34.54-42.22-53.73-42.22-19.2-42.22-19.2c0-15.35-19.19-11.51-26.87-7.67s-42.22,11.51-42.22,11.51a86.84,86.84,0,0,0-42.22-3.84c-23,3.84-49.9,3.84-69.09-15.35s3.84-46.06,3.84-46.06,23-30.71,3.84-61.41-76.77-34.55-99.8-30.71-49.9,26.87-34.54-3.84,96-11.51,145.85-15.35,92.12-46.06,92.12-46.06c46.06,80.61,119,72.93,119,72.93,26.87,42.22,72.93,57.57,103.63,61.41s34.55,19.19,34.55,19.19c15.35,15.36,34.54,34.55,53.73,34.55s17.23,3.78,27,.54C3636.57,3534.28,3636.57,3519.34,3636.68,3513.2Zm-389.51-582.32a19.5,19.5,0,0,0,.35,2.45,5.91,5.91,0,0,1-.43-1.63A5.73,5.73,0,0,1,3247.17,2930.88Zm126.59,81.42-1,1.37c.6-1.11,1.22-2.24,1.85-3.39ZM3389,3272.41a11.36,11.36,0,0,1-.08-1.22C3389,3271.59,3389,3272,3389,3272.41Zm131.24-255.33a56.77,56.77,0,0,1-16.23-7.69,35.8,35.8,0,0,0-11.28-4.77c-15.35-3.84-30.7-3.84-49.89,7.68s-15.36,38.38-30.71,49.9-3.84-3.84-3.84-23,3.84-26.87-7.68-26.87-7.67-23,11.52-34.55,38.38-19.19,69.09-19.19,26.87,7.68,57.57,7.68,46.06-11.51,53.74-7.68,3.84,0-3.84,7.68-3.84,3.84-7.68,11.51-11.51,0-19.19,15.36c-7.26,14.52-.81,32.45-9.83,34.35q-4-1.35-8.17-2.79C3536.15,3022,3528.24,3019.28,3520.25,3017.08ZM2857.5,3536.23a52.17,52.17,0,0,1,4.75,11.16l-136.16-35.63a134.19,134.19,0,0,1-44.94-22.36c-36.71-28-102.33-87.72-77-141.25,34.54-72.93,130.5-46.06,161.21-30.71s11.51,34.55,11.51,84.45S2846,3517,2857.5,3536.23Zm756.15-11.52c-19.19,3.84-30.71-11.51-49.9-30.7s-34.54-19.2-80.6-30.71-61.42-49.9-61.42-49.9h-11.51c-19.19-3.84-49.9-11.51-76.77-34.54s-38.38-49.9-38.38-49.9l-3.84,3.84c-53.73,65.25-122.82,53.73-191.91,49.9s-88.28,49.89-92.12,57.57,0,46.06,0,46.06l7.67,7.68c7.68,15.35,0,26.86,0,26.86-5.75,9.6,1.92,25-3.83,42.23-4.86,14.56-23,34.54-34.55,46.06s-30.7,30.7-26.87,49.89,26.87,26.87,69.09,49.9,38.39,26.87,38.39,42.22-11.52,49.9-49.9,57.58-53.74,0-53.74-7.68-3.84-11.51-7.67-19.19-3.84-11.52-3.84-11.52,15.35,0,19.19-23-38.38-46.06-46.06-46.06-7.68-15.35-7.68-15.35c-23,0-46.06-7.68-42.22-42.22s49.9-38.38,57.58-42.22-6.5-23.5-11.52-34.55c-9.6-21.11,0-46.06,0-46.06-15.35,0-53.74-34.54-69.09-49.89s-42.22-42.22-30.71-49.9,19.2,11.51,19.2,11.51c-3.84-34.54,23-53.73,23-53.73-19.2-11.52,0-23,3.83-30.71s-11.51-3.84-30.7,0-23-15.35-26.87-23-38.38-23-57.57-26.87-38.39-7.67-61.42-7.67-42.22,7.67-61.41,23-30.39,34.27-30.71,61.41c-.38,32.29,37.56,85.59,69.09,107.47,67.46,46.81,98.34,41.81,129.05,53.32s38.38,23,34.55,30.71-71.48-7.26-132.89-30.29-96-69.09-111.31-96-34.55-76.77-11.52-122.83S2631,3256,2677.1,3256s134.34,23,153.54,26.87,23,3.84,53.73-7.68a176.71,176.71,0,0,0,49.68-29.19c24.66,18.47,51.63,47.61,59.71,50.3,11.52,3.84,42.23-7.67,42.23-7.67-55.66-5.76-94-71-94-71l-9.59,1.92a23.63,23.63,0,0,1-17.75-3.52l-3.37-2.24s-96-3.84-99.8-23,15.36-7.68,15.36-7.68c0-30.63-41.57-27-58.35-24.33a16.57,16.57,0,0,1-12.84-3.36L2716,3124.3a30.11,30.11,0,0,0-18.63-6.45h-12.5a25.73,25.73,0,0,1-18.12-7.73c-11-11-22.27-12.71-29.13-12.45a22.5,22.5,0,0,1-12-2.92c-16.84-9.56-57.12-17.52-94.4-34.47-42.22-19.19-138.18-57.58-184.24-80.61-29.61-14.8-27.49-21.67-22.21-24.7a11.22,11.22,0,0,1,10.86.11c40.87,22,134.18,40,134.18,40l119,38.38s34.55,3.84,92.12,26.87,84.45,34.54,126.67,34.54c24.2,0,37,5,43.61,9.35a4.05,4.05,0,0,0,6.32-3.86c-3.18-20-29.22-17.48-73-20.84-49.9-3.84-126.67-46.06-126.67-46.06-130.5-26.87-157.37-46.06-168.88-49.9-99.8-15.35-165.05-42.22-165.05-42.22s-76.77-38.38-61.41-53.74,42.22,0,84.44,11.52,142,42.22,199.59,61.41,188.08,38.39,188.08,38.39l54.14,19.94a3.52,3.52,0,0,0,3.32-6.12c-13.68-10.23-34.91-23.08-57.46-25.34-38.38-3.84-111.31-30.71-134.34-30.71s-168.89-46.06-234.14-61.41-130.5-34.54-103.63-61.41,92.12,11.51,145.85,30.7,88.28,30.71,145.86,49.9,145.85,26.87,226.46,42.22,330.09,72.93,372.31,92.12,65.25,80.61,38.39,115.15-42.22,65.25-42.22,92.12c0,16.63,8.82,33.26,15.54,43.52a3.54,3.54,0,0,0,6.27-3.18c-3-8.2-8.38-17.16-8.38-26.9,0-23,11-36.21,28.79-40.31,13-3,21.8.25,27.28,4a2.83,2.83,0,0,0,4.42-2.76,77.69,77.69,0,0,1-1-12.79c0-15.35,18.06-17.81,26.87-38.38,5.76-13.44-11.51-7.68-11.51-7.68-34.55,30.71-19.2-11.52-15.36-26.87s25-44.14,9.6-59.49-17.27-40.3-13.44-59.5-24.94-51.81-24.94-51.81c0,57.57-30.71,30.7-30.71,30.7-19.19,19.19-30.71-19.19-30.71-19.19-11.51,15.35-19.19-3.84-19.19-3.84s-3.84,7.68-15.35,3.84-7.68-23-7.68-23c-7.68,11.52-15.35,7.68-19.19-3.84-2.71-8.14,0-30.7,0-30.7s1.92-12.55,1.92-19.19c0-10.16-.78-22.48-1.61-35.54-1.74-27.66-4.67-74,5.66-78.11l4.45-1.77s1.09-8.42,1.09-11.25c0-7.68-15.21-24.39-15.35-30.7h11.52c41.34,0,39.92,3.14,42,7.9.73,1.71.23,7.45.23,7.45l7-6.72c.43-.29,43.87-28.75,75.07-14.89,8.08,3.59,16.16,7.72,24,11.72,9.81,5,19.64,15.7,34.13,15.7,25.91,0,25.07-.31,47.87-.31,14.59,0,32.39,0,43.66,17.53,2.93,4.56,7.09,14.93,8,17.63-3.83-1-17.43-5-27-7.14-19.37-4.36-57.09-3.41-73,3.41-8,3.41-14.48,21.16-14.48,21.16s7.8,17.12,16.93,23.92c8,6,27.14,7,32.86,8.44,0,0-12.45,19.92-59.91,17-15.33-.94-26.87,23-26.87,23s34.54,26.87,34.54,61.41,0,30.71,7.68,38.39,11.52,30.7,0,42.22,19.19,46.06,19.19,46.06l23,34.54s3.84,3.84,7.68,0l11.51-11.51s3.84-7.68,11.52,0,19.19,23,19.19,23,7.68,7.67,3.84,11.51-19.19,15.36-23,34.55-3.84,26.86-3.84,26.86l8.54,2.85a9.43,9.43,0,0,1,5.85,5.31c1,2.4,1,5.28-2.88,7.2-7.67,3.84-7.67,7.67-7.67,19.19s11.51,23,26.87,38.38,38.38,30.71,65.25,65.25c24.48,31.48,73.54,79.14,134.74,82.88a51.13,51.13,0,0,1,14.24,3,36.69,36.69,0,0,0,12.23,2.38c11.51,0,12.73-5.15,23,0,5.39,2.7,10.77,16.73,13.5,24.86-5-4.24-11.3-7.87-15.42-3.74-7.68,7.67-7.68,19.19,3.83,19.19s11.52,11.51,7.68,19.19,3.84,11.51,3.84,11.51C3621.33,3505.52,3632.84,3520.87,3613.65,3524.71Z" transform="translate(-1.15 -649.5)"/><path class="cls-7" d="M3082,3115.93c-23.06-2.4-19.19-26.86-19.19-26.86-13.83,41.89-42.22,19.19-42.22,19.19l3.84,26.87s-7.68-3.84-7.68,11.51-3.83,23-15.35,23-23,19.19-3.84,23,19.19,15.35,26.87,23,3.84,26.87,3.84,26.87c30.71,0,46.06,26.87,46.06,26.87s0-11.52-7.68-30.71-23-23-23-23c3.84-7.68-3.84-26.87-3.84-26.87l15.36-23c15.35-23,0-34.54,0-34.54C3062.85,3115.93,3082,3115.93,3082,3115.93Z" transform="translate(-1.15 -649.5)"/><path class="cls-7" d="M3131.94,2927.86s7.68,7.67,0,19.19c0,0,7.68-7.68,7.68,0v30.7s11.51-19.19,26.87,0c0,0,0-23,15.35-15.35s-26.87-26.87-26.87-49.9C3155,2912.5,3155,2935.53,3131.94,2927.86Z" transform="translate(-1.15 -649.5)"/><path class="cls-7" d="M3389.11,3346.23s-23.91,3.82-42.22-30.7c0,0,18.31,37,3.84,53.73,0,0,19.19-11.51,34.54,7.68s19.19,23,19.19,23S3385.27,3361.59,3389.11,3346.23Z" transform="translate(-1.15 -649.5)"/><path class="cls-7" d="M3201,2789.68c-15-5-19.19,15.35-19.19,15.35s11.52-7.68,26.87,3.84C3208.71,2808.87,3212.55,2793.52,3201,2789.68Z" transform="translate(-1.15 -649.5)"/></g></g></g></svg>