<svg height="512pt" viewBox="0 0 512 512.004" width="512pt" xmlns="http://www.w3.org/2000/svg"><path d="m495.953125 323.445312h-43.652344l-50.90625-50.902343.175781-.175781 1.058594 1.054687h52.914063v-52.691406c0-21.140625-17.195313-38.335938-38.335938-38.335938s-38.339843 17.195313-38.339843 38.335938v16.691406l-6.292969 6.296875-54.894531-54.890625h34.683593v-15h-65.136719v5.371094h-58.09375v30.472656l16.011719 16.011719h43.652344l31.585937 31.585937-67.355468 67.351563h-112.605469v15h97.605469l-29.015625 29.015625h-153.011719v15h138.015625l-29.019531 29.015625h-62.027344v15h47.027344l-6.894532 6.898437-50.738281 50.738281 26.710938 26.714844h28.691406l121.210937-121.210937h.230469l36.96875 36.96875-57.527343 57.527343 26.714843 26.714844h28.6875l84.242188-84.242187-51.734375-51.734375 51.289062-51.289063 45.199219 45.199219h78.921875v-30.476562zm-226.824219-112.761718h-17.769531l-7.226563-7.226563v-9.261719h24.996094zm124.738282 10.046875c0-12.867188 10.46875-23.339844 23.339843-23.339844 12.867188 0 23.335938 10.472656 23.335938 23.339844v37.691406h-31.703125l-14.972656-14.972656zm-252.3125 276.269531h-16.265626l-11.71875-11.714844 40.136719-40.132812 19.847657 19.847656zm156.285156 0h-16.265625l-11.714844-11.714844 40.132813-40.132812 19.847656 19.847656zm159.132812-142.066406h-17.710937l-51.414063-51.414063-61.894531 61.898438-13.632813-13.636719-10.609374 10.605469 65.371093 65.371093-26.636719 26.636719-19.847656-19.847656 6.789063-6.789063-51.96875-51.96875h-12.65625l-78.601563 78.605469-19.847656-19.847656 177.28125-177.28125-46.582031-46.585937h-10.882813v-16.484376h17.710938l70.730468 70.734376 10.785157-10.78125 7.609375 7.609374-10.78125 10.785157 65.90625 65.902343h10.878906v16.488282zm39.996094 0h-25v-16.488282h17.773438l7.226562 7.226563zm0 0"/><path d="m274.878906 243.46875 10.605469-10.609375 20.804687 20.800781-10.605468 10.605469zm0 0"/><path d="m124.121094 145.535156 51.289062 51.289063-51.734375 51.734375 37.242188 37.242187 31.621093 31.625 10.605469-10.609375-21.015625-21.011718 19.847656-19.847657 45.433594 45.433594 10.609375-10.605469-47.507812-47.503906-4.71875-4.71875 22.277343-22.277344-10.605468-10.605468-32.882813 32.882812 6.785157 6.789062-19.847657 19.847657-26.632812-26.636719 46.429687-46.433594 13.1875-13.183594-10.609375-10.605468-7.878906 7.878906-61.894531-61.894531-51.410156 51.410156h-17.710938v-16.484375h10.878906l65.90625-65.90625-10.78125-10.78125 7.609375-7.613281 10.78125 10.78125 70.734375-70.730469h17.710938v16.484375h-10.882813l-46.582031 46.585937 93.933594 93.929688 10.605468-10.605469-16.585937-16.582031h141.003906v-15h-156l-29.015625-29.015625h100.59375v-15h-115.59375l-7.726562-7.726563 31.582031-31.585937h43.652344l16.011719-16.011719v-30.472656h-78.917969l-64.523438 64.519531-6.292969-6.296875v-16.691406c0-21.136719-17.199218-38.335938-38.339843-38.335938s-38.335938 17.199219-38.335938 38.335938v52.691406h52.914063l1.058594-1.054687.175781.175781-50.90625 50.90625h-43.652344l-16.01171875 16.011719v30.472656h78.91796875zm118.71875-130.535156h24.996094v9.257812l-7.226563 7.226563h-17.769531zm-171.417969 64.222656v-37.691406c0-12.867188 10.46875-23.335938 23.339844-23.335938 12.867187 0 23.339843 10.46875 23.339843 23.335938v22.722656l-14.976562 14.96875zm-31.421875 96.511719h-25v-9.257813l7.226562-7.230468h17.773438zm0 0"/><path d="m326.578125 350.652344-10.609375-10.605469 18.132812-18.132813 10.609376 10.605469zm25.203125-25.203125-10.609375-10.605469 10.605469-10.605469 10.609375 10.605469zm17.675781-17.675781-10.605469-10.609376 10.605469-10.605468 10.605469 10.609375zm0 0"/><path d="m211.339844 154.386719-22.574219-22.574219 10.609375-10.605469 22.570312 22.570313zm-29.644532-29.644531-10.605468-10.605469 10.609375-10.605469 10.605469 10.605469zm-17.675781-17.675782-10.605469-10.605468 10.605469-10.605469 10.605469 10.605469zm0 0"/></svg>