<svg id="Capa_1" enable-background="new 0 0 512 512" height="512" viewBox="0 0 512 512" width="512" xmlns="http://www.w3.org/2000/svg"><g><g fill="#94615f"><path d="m357.413 148.918 44.341 352.793c.2 1.593 1.555 2.789 3.161 2.789h45.954c1.917 0 3.4-1.681 3.161-3.583l-44.241-351.998h-52.376z"/><path d="m154.587 148.918-44.341 352.793c-.2 1.593-1.555 2.789-3.161 2.789h-45.954c-1.917 0-3.4-1.681-3.161-3.583l44.241-351.998h52.376z"/></g><g fill="#7e5352"><path d="m414.495 186.362h-52.376l2.791 22.203h52.375z"/><path d="m94.715 208.565h52.375l2.791-22.203h-52.376z"/></g><g fill="#7e5352"><path d="m429.8 308.138h-52.375l2.79 22.204h52.376z"/><path d="m79.409 330.342h52.376l2.79-22.204h-52.375z"/></g><g><path d="m464.499 120.792v63.111c0 .615-.221 1.18-.602 1.611-.455.516-1.119.848-1.857.848h-412.08c-1.365 0-2.459-1.107-2.459-2.459v-63.111c0-.615.221-1.18.602-1.623.455-.516 1.119-.836 1.857-.836h412.08c1.365 0 2.459 1.095 2.459 2.459z" fill="#fad448"/><path d="m462.04 166.212h-412.08c-1.365 0-2.459-1.107-2.459-2.459v20.149c0 1.352 1.094 2.459 2.459 2.459h412.08c.738 0 1.402-.332 1.857-.848.381-.43.602-.996.602-1.611v-20.149c0 .615-.221 1.18-.602 1.611-.455.516-1.119.848-1.857.848z" fill="#e2b93e"/><g fill="#7d8c97"><path d="m144.459 186.362h-48.245l-48.11-67.192c.455-.516 1.119-.836 1.857-.836h45.787z"/><path d="m251.144 186.362h-48.25l-48.718-68.033h48.25z"/><path d="m357.824 186.362h-48.25l-48.718-68.033h48.25z"/><path d="m463.897 185.513c-.455.516-1.119.848-1.857.848h-45.787l-48.713-68.029h48.246z"/><path d="m144.459 186.362h-48.245l-48.11-67.192c.455-.516 1.119-.836 1.857-.836h45.787zm57.967-68.033h-48.25l48.718 68.033h48.25zm106.68 0h-48.25l48.718 68.033h48.25zm106.68.004h-48.246l48.713 68.029h45.787c.738 0 1.402-.332 1.857-.848z"/></g><g fill="#5c6c75"><path d="m188.465 166.212 14.429 20.15h48.25l-14.429-20.15z"/><path d="m81.787 166.212 14.427 20.15h48.245l-14.428-20.15z"/><path d="m295.146 166.212 14.428 20.15h48.25l-14.429-20.15z"/><path d="m450.075 166.212h-48.249l14.428 20.149h45.787c.553 0 1.065-.187 1.478-.498.138-.104.265-.221.378-.35z"/></g></g><g><path d="m464.499 242.568v63.111c0 .615-.221 1.18-.602 1.611-.455.516-1.119.848-1.857.848h-412.08c-1.365 0-2.459-1.107-2.459-2.459v-63.111c0-.615.221-1.18.602-1.623.455-.516 1.119-.836 1.857-.836h412.08c1.365 0 2.459 1.095 2.459 2.459z" fill="#fad448"/><path d="m462.04 287.989h-412.08c-1.365 0-2.459-1.107-2.459-2.459v20.149c0 1.352 1.094 2.459 2.459 2.459h412.08c.738 0 1.402-.332 1.857-.848.381-.43.602-.996.602-1.611v-20.149c0 .615-.221 1.18-.602 1.611-.455.516-1.119.848-1.857.848z" fill="#e2b93e"/><g fill="#7d8c97"><path d="m144.459 308.138h-48.245l-48.11-67.192c.455-.516 1.119-.836 1.857-.836h45.787z"/><path d="m251.144 308.138h-48.25l-48.718-68.033h48.25z"/><path d="m357.824 308.138h-48.25l-48.718-68.033h48.25z"/><path d="m463.897 307.29c-.455.516-1.119.848-1.857.848h-45.787l-48.713-68.029h48.246z"/><path d="m144.459 308.138h-48.245l-48.11-67.192c.455-.516 1.119-.836 1.857-.836h45.787zm57.967-68.033h-48.25l48.718 68.033h48.25zm106.68 0h-48.25l48.718 68.033h48.25zm106.68.004h-48.246l48.713 68.029h45.787c.738 0 1.402-.332 1.857-.848z"/></g><g fill="#5c6c75"><path d="m188.465 287.989 14.429 20.149h48.25l-14.429-20.149z"/><path d="m81.787 287.989 14.427 20.149h48.245l-14.428-20.149z"/><path d="m295.146 287.989 14.428 20.149h48.25l-14.429-20.149z"/><path d="m450.075 287.989h-48.249l14.428 20.149h45.787c.553 0 1.065-.187 1.478-.498.138-.104.265-.221.378-.35z"/></g></g><g><path d="m111.252 59.182h32.289v59.147h-32.289z" fill="#d7e3f2"/><circle cx="127.397" cy="44.846" fill="#d54954" r="37.346"/><path d="m368.458 59.182h32.289v59.147h-32.289z" fill="#d7e3f2"/><circle cx="384.603" cy="44.846" fill="#d54954" r="37.346"/></g><path d="m462.041 193.862c2.68 0 5.237-1.098 7.102-3 .112-.11.225-.22.329-.335.013-.015.028-.027.041-.042.055-.062.102-.129.155-.192.087-.105.176-.209.257-.319 1.338-1.731 2.075-3.859 2.075-6.072v-63.111c0-5.491-4.468-9.959-9.959-9.959h-53.79v-27.905c12.715-7.924 21.199-22.027 21.199-38.081-.001-24.728-20.118-44.846-44.847-44.846s-44.846 20.118-44.846 44.846c0 16.056 8.486 30.16 21.203 38.084v27.903h-209.92v-27.903c12.717-7.924 21.203-22.028 21.203-38.084 0-24.728-20.118-44.846-44.846-44.846s-44.846 20.118-44.846 44.846c0 16.054 8.484 30.157 21.199 38.081v27.906h-53.79c-2.59 0-5.061 1.014-6.951 2.841-.186.172-.361.351-.526.538-.02.022-.043.041-.063.064-.047.055-.088.114-.134.17-.08.098-.16.196-.234.298-1.322 1.735-2.052 3.857-2.052 6.048v63.111c0 5.491 4.468 9.959 9.959 9.959h39.04l-4.866 38.748h-34.173c-2.58 0-5.043 1.006-6.935 2.824-.193.178-.375.364-.546.558-.02.022-.043.042-.063.064-.047.054-.087.114-.133.169-.08.098-.159.196-.233.297-1.321 1.735-2.05 3.857-2.05 6.047v63.11c0 5.491 4.468 9.959 9.959 9.959h23.739l-23.17 184.341c-.384 3.041.558 6.104 2.584 8.402 2.027 2.3 4.949 3.619 8.017 3.619h45.95c5.378 0 9.94-4.021 10.611-9.355l9.42-74.98c.517-4.11-2.396-7.86-6.506-8.376-4.124-.523-7.86 2.397-8.376 6.506l-8.945 71.205h-37.261l22.795-181.362h37.261l-9.47 75.307c-.517 4.109 2.396 7.86 6.506 8.377.317.04.633.06.945.06 3.725 0 6.955-2.773 7.432-6.565l3.542-28.166h241.931l17.345 137.997c.671 5.332 5.233 9.353 10.611 9.353h45.95c3.067 0 5.989-1.319 8.017-3.619 2.026-2.299 2.968-5.361 2.584-8.396l-9.34-74.33c-.517-4.11-4.266-7.03-8.376-6.506-4.11.516-7.023 4.267-6.506 8.376l8.729 69.474h-37.261l-22.796-181.362h37.262l9.695 77.157c.477 3.792 3.707 6.566 7.432 6.566.312 0 .627-.02.944-.06 4.11-.517 7.023-4.267 6.506-8.376l-9.46-75.287h23.74c2.671 0 5.219-1.091 7.086-2.984.119-.115.237-.231.347-.353.013-.015.028-.028.042-.042.054-.061.1-.127.152-.189.088-.106.177-.211.259-.321 1.337-1.731 2.074-3.859 2.074-6.07v-63.11c0-5.491-4.468-9.959-9.959-9.959h-34.173l-4.866-38.748zm-50.109 53.747 37.976 53.028h-29.801l-37.972-53.028zm-50.254 53.029-37.974-53.028h39.982l37.972 53.028zm-48.25 0-37.973-53.028h29.8l37.974 53.028zm-58.431 0-37.973-53.028h39.981l37.974 53.028zm-48.249 0-37.974-53.028h29.801l37.974 53.028zm-58.435 0-37.972-53.028h39.983l37.974 53.028zm-48.245 0-37.969-53.028h29.794l37.972 53.028zm0-121.776-37.969-53.029h29.794l37.972 53.029zm50.257-53.029 37.974 53.029h-39.985l-37.972-53.029zm48.25 0 37.974 53.029h-29.8l-37.974-53.029zm58.43 0 37.974 53.029h-39.981l-37.974-53.029zm48.25 0 37.974 53.029h-29.801l-37.974-53.029zm3.725 106.776c-.037 0-.073-.001-.109 0h-157.24l4.866-38.748h199.007l4.866 38.748zm52.987-53.747h-.289l-37.974-53.029h39.982l37.972 53.029zm49.965-53.029 37.976 53.029h-29.802l-37.972-53.029zm45.068 37.168-26.617-37.168h26.617zm-72.397-148.001c16.457 0 29.846 13.389 29.846 29.846s-13.389 29.846-29.846 29.846-29.846-13.389-29.846-29.846 13.389-29.846 29.846-29.846zm-8.643 73.848c2.798.549 5.686.844 8.643.844 2.958 0 5.847-.296 8.647-.845v21.985h-17.29zm-248.563-73.848c16.457 0 29.846 13.389 29.846 29.846s-13.389 29.846-29.846 29.846-29.846-13.389-29.846-29.846 13.389-29.846 29.846-29.846zm-8.647 73.848c2.8.549 5.689.845 8.647.845 2.957 0 5.845-.295 8.643-.844v21.985h-17.29zm-63.75 52.838 26.619 37.176h-26.619zm49.117 52.176h37.262l-4.866 38.748h-37.262zm-49.117 69.599 26.619 37.176h-26.619zm320.078 86.189h-238.159l4.277-34.012h229.607zm81.922-64.873-26.617-37.168h26.617zm-81.513-52.168-4.866-38.748h37.262l4.866 38.748z"/></g></svg>